<?xml version="1.0" encoding="UTF-8" standalone="no"?>
<!-- Created with Inkscape (http://www.inkscape.org/) -->

<svg
   xmlns:dc="http://purl.org/dc/elements/1.1/"
   xmlns:cc="http://creativecommons.org/ns#"
   xmlns:rdf="http://www.w3.org/1999/02/22-rdf-syntax-ns#"
   xmlns:svg="http://www.w3.org/2000/svg"
   xmlns="http://www.w3.org/2000/svg"
   version="1.1"
   viewBox="0,0,1255.2853,316.02039"
   preserveAspectRatio="xMidYMid meet"
   id="svg3226"
   xml:space="preserve"><metadata
     id="metadata3232"><rdf:RDF><cc:Work
         rdf:about=""><dc:format>image/svg+xml</dc:format><dc:type
           rdf:resource="http://purl.org/dc/dcmitype/StillImage" /><dc:title></dc:title></cc:Work></rdf:RDF></metadata><defs
     id="defs3230"><clipPath
       id="clipPath3240"><path
         d="m 0,2385.441 1604.355,0 L 1604.355,0 0,0 0,2385.441 z"
         id="path3242" /></clipPath></defs><g
     transform="matrix(1.25,0,0,-1.25,-333.946,2664.4526)"
     id="g3234"><g
       clip-path="url(#clipPath3240)"
       id="g3238"><g
         id="g3677"><g
           transform="translate(498.0439,2088.3691)"
           id="g3244"><path
             d="M 0,0 -0.001,0.01 0,0 z m -156,13.334 c 17.969,4.399 35.149,6.163 51.191,6.163 0.397,0 0.794,-0.001 1.192,-0.003 l 0.053,0 c 14.548,-0.083 28.141,-1.611 40.465,-3.931 16.209,-3.049 30.222,-7.473 41.281,-11.744 11.379,-4.197 31.996,-12.92 45.516,-25.95 0.2,4.482 0.273,8.479 0.274,11.877 -0.001,5.802 -0.206,9.884 -0.323,11.745 l -0.001,0.01 c -0.06,0.946 -0.22,1.742 -0.404,2.411 -0.182,0.657 -0.389,1.195 -0.59,1.65 -0.398,0.894 -0.771,1.481 -1.086,1.943 -0.306,0.443 -0.566,0.763 -0.79,1.025 -0.434,0.501 -0.744,0.796 -1.001,1.035 -0.238,0.22 -0.427,0.379 -0.591,0.514 -0.307,0.25 -0.529,0.413 -0.722,0.553 -0.334,0.24 -0.58,0.402 -0.803,0.547 -0.328,0.212 -0.591,0.372 -0.794,0.495 -0.201,0.121 -0.34,0.201 -0.38,0.224 l 0.06,-0.034 C 12.084,14.489 -1.769,22.18 -22.58,29.31 c -10.406,3.563 -22.553,6.984 -36.135,9.541 -13.582,2.556 -28.601,4.248 -44.731,4.338 l -0.068,10e-4 -0.038,0 0.066,-10e-4 c -0.44,0.003 -0.88,0.004 -1.323,0.004 -17.778,0.001 -36.884,-1.959 -56.827,-6.843 -8.088,-1.98 -16.313,-4.452 -24.638,-7.454 -2.343,-8.167 -4.348,-17.616 -5.041,-27.475 12.04,5.208 23.84,9.101 35.315,11.913"
             id="path3246"
             style="fill:#35bcee;fill-opacity:1;fill-rule:nonzero;stroke:none" /></g><g
           transform="translate(497.9453,2064.7598)"
           id="g3248"><path
             d="m 0,0 c -0.491,-8.982 -1.554,-19.906 -3.693,-31.821 -1.683,-9.372 -4.031,-19.355 -7.269,-29.486 -3.237,-10.13 -7.367,-20.406 -12.6,-30.386 -3.923,-7.487 -8.467,-14.807 -13.722,-21.793 -7.886,-10.481 -17.361,-20.21 -28.824,-28.685 -9.4,-6.942 -20.143,-13.049 -32.516,-18.008 -1.553,-0.622 -3.131,-1.225 -4.734,-1.811 -0.039,0.014 -3.555,-1.271 -5.336,-1.896 -10.544,-3.699 -22.37,-6.502 -33.152,-5.922 8.663,-5.213 18.135,-9.838 28.451,-13.729 -0.004,0.006 -0.008,0.011 -0.008,0.011 0.182,-0.072 0.355,-0.134 0.534,-0.203 0.447,-0.167 0.903,-0.327 1.354,-0.491 5.181,-1.789 8.183,-1.794 8.183,-1.794 2.254,0 4.737,0.645 6.288,1.13 11.22,3.965 21.487,8.764 30.815,14.262 14.992,8.835 27.589,19.435 38.077,31.015 10.492,11.581 18.88,24.131 25.579,36.912 5.955,11.362 10.582,22.909 14.182,34.174 5.401,16.898 8.501,33.166 10.267,47.307 0.186,1.489 0.354,2.95 0.512,4.391 C 16.905,-11.924 9.195,-5.684 0,0"
             id="path3250"
             style="fill:#334d7b;fill-opacity:1;fill-rule:nonzero;stroke:none" /></g><g
           transform="translate(384.542,1881.2334)"
           id="g3252"><path
             d="M 0,0 C 0,0 0.004,-0.005 0.009,-0.011 0.182,-0.076 0.36,-0.137 0.534,-0.202 0.355,-0.134 0.183,-0.071 0,0"
             id="path3254"
             style="fill:#313555;fill-opacity:1;fill-rule:nonzero;stroke:none" /></g><g
           transform="translate(373.3408,1912.374)"
           id="g3256"><path
             d="m 0,0 c -1.349,0.739 -2.683,1.489 -3.984,2.259 -12.853,7.596 -23.545,16.618 -32.532,26.558 -8.982,9.939 -16.25,20.806 -22.128,32.048 -5.211,9.97 -9.324,20.231 -12.55,30.344 -4.84,15.17 -7.678,30.006 -9.289,42.949 -0.249,2 -0.47,3.955 -0.664,5.858 -0.161,1.577 -0.303,3.119 -0.43,4.622 -0.31,3.679 -0.936,11.779 -0.989,14.23 -0.03,1.346 -0.052,2.974 -0.05,4.833 0.007,8.304 0.509,21.2 3.181,33.965 -6.389,-2.874 -12.822,-6.077 -19.283,-9.644 l 0.039,0.023 -1.019,-0.558 c -3.545,-1.938 -5.865,-5.569 -6.137,-9.599 l -0.012,-0.183 -0.002,-0.027 c -0.115,-1.771 -0.335,-5.934 -0.335,-11.944 0.002,-11.194 0.755,-28.79 4.424,-49.273 1.837,-10.241 4.405,-21.207 7.99,-32.452 3.587,-11.245 8.196,-22.774 14.126,-34.121 4.458,-8.53 9.667,-16.956 15.751,-25.065 5.949,-7.93 12.742,-15.556 20.47,-22.66 3.042,-2.909 8.653,-7.475 8.653,-7.475 C -15.813,-4.719 0,0 0,0"
             id="path3258"
             style="fill:#313555;fill-opacity:1;fill-rule:nonzero;stroke:none" /></g><g
           transform="translate(590.7383,2051.21)"
           id="g3260"><path
             d="m 0,0 28.458,0 c 2.216,-8.031 5.308,-18.234 9.278,-30.604 3.97,-12.372 7.063,-22.469 9.279,-30.293 2.215,-7.826 3.485,-11.738 3.808,-11.738 0.323,0 3.415,9.947 9.279,29.844 5.862,19.895 9.786,34.159 11.77,42.791 l 28.043,0 c 0.554,-1.385 0.831,-2.724 0.831,-4.016 0,-1.154 -0.231,-1.963 -0.692,-2.423 -0.462,-0.462 -1.27,-0.693 -2.424,-0.693 l -4.569,0 c -0.185,-8.493 -0.047,-22.389 0.415,-41.683 0.461,-19.295 0.922,-32.152 1.384,-38.568 l 6.717,0 c 0.6,-1.385 0.901,-2.724 0.901,-4.015 0,-1.155 -0.232,-1.963 -0.693,-2.424 -0.462,-0.462 -1.293,-0.693 -2.493,-0.693 l -27.143,0 c -0.6,1.569 -0.9,3.023 -0.9,4.363 0,0.969 0.242,1.673 0.728,2.111 0.484,0.438 1.28,0.658 2.388,0.658 l 4.085,0 c 0.369,8.032 0.208,32.45 -0.484,73.258 -3.601,-13.849 -7.756,-27.951 -12.464,-42.307 -4.708,-14.357 -7.824,-22.849 -9.348,-25.481 -1.523,-2.631 -3.993,-3.946 -7.408,-3.946 -4.893,0 -7.629,0.183 -8.206,0.553 -0.577,0.369 -3.67,8.436 -9.277,24.201 -5.61,15.762 -10.537,31.54 -14.784,47.327 -0.138,-41.038 -0.046,-65.573 0.277,-73.605 l 6.439,0 c 0.554,-1.385 0.831,-2.724 0.831,-4.015 0,-1.155 -0.231,-1.963 -0.692,-2.424 -0.462,-0.462 -1.27,-0.693 -2.424,-0.693 l -25.481,0 c -0.554,1.569 -0.83,3.023 -0.83,4.363 0,0.969 0.242,1.673 0.726,2.111 0.486,0.438 1.281,0.658 2.389,0.658 l 5.056,0 c 0.506,6.416 0.979,19.273 1.418,38.568 0.439,19.294 0.612,33.19 0.52,41.683 l -6.994,0 c -0.553,1.569 -0.83,3.024 -0.83,4.362 0,0.97 0.242,1.673 0.726,2.113 C -1.905,-0.22 -1.108,0 0,0"
             id="path3262"
             style="fill:#313555;fill-opacity:1;fill-rule:nonzero;stroke:none" /></g><g
           transform="translate(745.6318,1985.6387)"
           id="g3264"><path
             d="m 0,0 c -3.971,0.692 -8.078,1.038 -12.325,1.038 -5.263,0 -8.945,-0.877 -11.044,-2.631 -2.101,-1.755 -3.151,-4.524 -3.151,-8.309 0,-3.694 0.935,-6.474 2.804,-8.343 1.87,-1.87 4.767,-2.805 8.69,-2.805 3.047,0 5.885,0.599 8.517,1.8 2.631,1.2 4.373,2.874 5.228,5.021 C -0.428,-12.083 0,-8.702 0,-4.086 L 0,0 z m 1.385,-23.404 c -3.878,-2.262 -7.86,-3.982 -11.945,-5.158 -4.085,-1.177 -8.09,-1.766 -12.013,-1.766 -6.232,0 -10.871,1.465 -13.917,4.396 -3.047,2.932 -4.571,7.282 -4.571,13.053 0,7.063 2.516,12.463 7.547,16.202 5.032,3.739 12.81,5.609 23.335,5.609 L 0,8.932 c -0.277,8.124 -1.443,13.779 -3.497,16.964 -2.055,3.185 -5.69,4.778 -10.905,4.778 -2.771,0 -5.425,-0.278 -7.963,-0.831 -1.34,-2.678 -2.136,-4.11 -2.389,-4.293 -0.254,-0.185 -1.582,-0.589 -3.981,-1.212 -2.402,-0.623 -4.075,-0.508 -5.021,0.347 -0.946,0.853 -1.916,2.412 -2.908,4.673 -0.993,2.261 -1.488,4.085 -1.488,5.47 0,0.924 0.381,1.638 1.142,2.147 0.762,0.507 3.865,1.13 9.313,1.87 5.446,0.737 11.24,1.107 17.38,1.107 8.171,0 14.206,-1.408 18.106,-4.223 3.9,-2.817 5.852,-7.987 5.852,-15.51 l 0,-21.327 c 0,-9.879 0.425,-15.903 1.28,-18.073 0.854,-2.17 2.273,-3.046 4.259,-2.631 0.553,-1.015 0.831,-2.007 0.831,-2.977 0,-1.569 -0.982,-2.77 -2.943,-3.601 -1.963,-0.831 -4.605,-1.246 -7.928,-1.246 -1.617,0 -2.851,0.198 -3.704,0.589 -0.855,0.392 -2.206,2.273 -4.051,5.643"
             id="path3266"
             style="fill:#313555;fill-opacity:1;fill-rule:nonzero;stroke:none" /></g><g
           transform="translate(790.6387,2037.085)"
           id="g3268"><path
             d="m 0,0 c -3.001,0 -5.216,0.623 -6.647,1.87 -1.431,1.246 -2.147,3.046 -2.147,5.401 0.046,2.538 0.97,4.57 2.77,6.093 1.8,1.523 4.339,2.284 7.617,2.284 3.23,0 5.539,-0.657 6.924,-1.973 1.384,-1.316 2.077,-3.081 2.077,-5.297 C 10.594,5.886 9.739,3.866 8.032,2.319 6.324,0.772 3.646,0 0,0 m 9.832,-73.258 7.34,0 c 0.6,-1.201 0.9,-2.492 0.9,-3.877 0,-1.247 -0.254,-2.101 -0.761,-2.562 -0.508,-0.462 -1.501,-0.693 -2.978,-0.693 l -27.212,0 c -0.554,1.477 -0.831,2.862 -0.831,4.155 0,1.014 0.242,1.765 0.727,2.251 0.485,0.484 1.327,0.726 2.528,0.726 l 5.124,0 c 0.322,6.416 0.484,13.941 0.484,22.573 0,10.525 -0.081,17.553 -0.242,21.084 -0.162,3.532 -0.543,5.965 -1.142,7.305 -0.601,1.339 -1.444,2.17 -2.528,2.493 -1.085,0.323 -2.435,0.485 -4.051,0.485 -0.6,0.969 -0.9,2.099 -0.9,3.392 0,1.893 0.9,3.047 2.7,3.462 1.801,0.416 5.286,0.624 10.456,0.624 3.646,0 6.116,-0.174 7.408,-0.519 1.293,-0.347 2.032,-0.994 2.217,-1.94 0.184,-0.946 0.277,-2.573 0.277,-4.881 l 0,-31.505 c 0,-8.632 0.161,-16.157 0.484,-22.573"
             id="path3270"
             style="fill:#313555;fill-opacity:1;fill-rule:nonzero;stroke:none" /></g><g
           transform="translate(827.4756,1996.3711)"
           id="g3272"><path
             d="m 0,0 c 0,19.525 -0.093,31.955 -0.277,37.286 -0.185,5.332 -0.52,8.805 -1.004,10.421 -0.485,1.615 -1.282,2.654 -2.389,3.116 -1.107,0.461 -2.562,0.693 -4.362,0.693 -0.601,1.43 -0.901,2.838 -0.901,4.223 0,1.431 0.589,2.33 1.766,2.7 1.178,0.37 4.974,0.555 11.391,0.555 3.646,0 6.116,-0.174 7.409,-0.519 1.291,-0.347 2.03,-0.994 2.215,-1.939 0.184,-0.947 0.277,-2.574 0.277,-4.882 l 0,-57.956 c 0.046,-11.078 0.23,-19.826 0.555,-26.242 l 7.685,0 c 0.554,-1.201 0.831,-2.492 0.831,-3.877 0,-1.247 -0.255,-2.101 -0.761,-2.562 -0.509,-0.462 -1.478,-0.693 -2.91,-0.693 l -27.557,0 c -0.601,1.477 -0.901,2.862 -0.901,4.155 0,1.014 0.254,1.765 0.762,2.25 0.508,0.485 1.339,0.727 2.493,0.727 l 5.124,0 C -0.186,-26.128 0,-15.28 0,0"
             id="path3274"
             style="fill:#313555;fill-opacity:1;fill-rule:nonzero;stroke:none" /></g><g
           transform="translate(934.7314,2052.5957)"
           id="g3276"><path
             d="m 0,0 c 10.016,0 16.964,-0.589 20.841,-1.766 3.878,-1.177 5.816,-3.452 5.816,-6.821 0,-3.093 -1.246,-5.84 -3.739,-8.239 -9.693,4.431 -18.695,6.646 -27.004,6.646 -5.862,0 -10.006,-1.166 -12.429,-3.496 -2.423,-2.331 -3.635,-5.551 -3.635,-9.659 0,-4.293 1.442,-7.71 4.328,-10.248 2.884,-2.539 8.367,-5.078 16.444,-7.616 9.556,-2.864 16.792,-6.153 21.708,-9.867 4.916,-3.716 7.513,-9.729 7.79,-18.038 0,-9.278 -3.175,-16.295 -9.521,-21.049 -6.347,-4.755 -16.053,-7.132 -29.117,-7.132 -9.093,0 -15.994,0.646 -20.703,1.938 -4.708,1.292 -7.062,3.693 -7.062,7.201 0,3.186 1.338,6 4.015,8.448 9.141,-4.986 18.65,-7.478 28.529,-7.478 6.785,0 11.608,1.108 14.471,3.323 2.862,2.216 4.293,5.632 4.293,10.249 0,5.539 -2.066,9.693 -6.197,12.463 -4.132,2.77 -10.722,5.584 -19.768,8.448 -8.772,2.676 -15.015,6.035 -18.731,10.074 -3.716,4.039 -5.574,9.336 -5.574,15.891 0,8.17 3.035,14.667 9.106,19.492 C -20.069,-2.413 -11.356,0 0,0"
             id="path3278"
             style="fill:#313555;fill-opacity:1;fill-rule:nonzero;stroke:none" /></g><g
           transform="translate(1010.4814,2017.0049)"
           id="g3280"><path
             d="m 0,0 c -6.001,0 -10.179,-2.043 -12.533,-6.128 -2.354,-4.085 -3.531,-10.282 -3.531,-18.592 0,-9.509 1.2,-16.503 3.6,-20.979 2.401,-4.479 6.209,-6.717 11.426,-6.717 3.046,0 5.804,0.554 8.274,1.662 2.469,1.108 4.189,2.792 5.159,5.055 0.968,2.261 1.454,6.093 1.454,11.494 l 0,30.604 C 12.094,-2.586 10.04,-1.731 7.686,-1.038 5.332,-0.347 2.77,0 0,0 m 13.363,-83.645 c 0.324,6.879 0.486,16.158 0.486,27.836 -2.817,-1.8 -6.025,-3.231 -9.625,-4.293 -3.601,-1.061 -7.364,-1.592 -11.286,-1.592 -8.31,0 -14.496,2.492 -18.557,7.478 -4.063,4.986 -6.094,12.924 -6.094,23.819 0,13.386 2.908,23.345 8.725,29.877 5.816,6.533 14.148,9.798 24.996,9.798 2.446,0 4.801,-0.162 7.062,-0.484 2.262,-0.323 4.709,-0.831 7.34,-1.523 l 2.355,5.608 c 3.23,0 5.446,-0.208 6.647,-0.623 1.199,-0.415 1.961,-1.132 2.285,-2.147 0.323,-1.015 0.485,-2.608 0.485,-4.777 L 28.043,-60.24 c 0,-8.725 0.161,-16.526 0.484,-23.405 l 5.955,0 c 0.6,-1.2 0.901,-2.492 0.901,-3.876 0,-1.247 -0.255,-2.101 -0.762,-2.563 -0.508,-0.46 -1.5,-0.692 -2.977,-0.692 l -27.559,0 c -0.554,1.478 -0.831,2.863 -0.831,4.155 0,1.016 0.243,1.766 0.727,2.25 0.486,0.484 1.327,0.726 2.528,0.726 l 6.854,0 z"
             id="path3282"
             style="fill:#313555;fill-opacity:1;fill-rule:nonzero;stroke:none" /></g><g
           transform="translate(1114.8291,1984.5303)"
           id="g3284"><path
             d="m 0,0 c 0,-9.278 0.369,-14.979 1.107,-17.103 0.739,-2.124 2.216,-3.07 4.432,-2.838 0.554,-1.108 0.831,-2.194 0.831,-3.254 0,-1.709 -1.315,-3.025 -3.946,-3.948 -2.632,-0.922 -5.194,-1.384 -7.687,-1.384 -1.616,0 -2.793,0.323 -3.531,0.969 -0.739,0.646 -1.893,2.4 -3.462,5.262 -3.693,-2.123 -7.513,-3.808 -11.46,-5.055 -3.946,-1.246 -8.09,-1.869 -12.429,-1.869 -5.723,0 -10.167,1.581 -13.329,4.743 -3.162,3.162 -4.743,8.967 -4.743,17.415 0,16.479 -0.081,26.485 -0.242,30.016 -0.162,3.531 -0.543,5.965 -1.143,7.305 -0.599,1.339 -1.384,2.17 -2.354,2.493 -0.97,0.322 -2.031,0.484 -3.185,0.484 -0.6,0.97 -0.9,2.053 -0.9,3.254 0,1.616 1.131,2.724 3.393,3.324 2.261,0.599 5.401,0.901 9.417,0.901 3.185,0 5.366,-0.197 6.543,-0.589 1.177,-0.393 1.916,-1.039 2.216,-1.938 0.3,-0.901 0.451,-3.937 0.451,-9.106 l 0,-26.104 c 0,-9.463 1.048,-15.649 3.15,-18.557 2.1,-2.908 5.019,-4.362 8.759,-4.362 2.632,0 5.193,0.553 7.685,1.662 2.493,1.107 4.166,2.653 5.021,4.638 0.853,1.985 1.281,5.817 1.281,11.495 0,13.201 -0.059,21.51 -0.174,24.927 -0.115,3.415 -0.438,5.851 -0.969,7.305 -0.531,1.454 -1.235,2.343 -2.112,2.666 -0.878,0.322 -2.008,0.484 -3.392,0.484 -0.601,0.97 -0.901,2.053 -0.901,3.254 0,1.616 1.189,2.724 3.566,3.324 2.378,0.599 5.342,0.901 8.898,0.901 3.185,0 5.365,-0.197 6.543,-0.589 1.178,-0.393 1.915,-1.098 2.216,-2.112 C -0.15,36.998 0,33.904 0,28.735 L 0,0 z"
             id="path3286"
             style="fill:#313555;fill-opacity:1;fill-rule:nonzero;stroke:none" /></g><g
           transform="translate(1173.6846,1985.6387)"
           id="g3288"><path
             d="m 0,0 c -3.971,0.692 -8.078,1.038 -12.325,1.038 -5.263,0 -8.944,-0.877 -11.044,-2.631 -2.102,-1.755 -3.151,-4.524 -3.151,-8.309 0,-3.694 0.935,-6.474 2.805,-8.343 1.869,-1.87 4.766,-2.805 8.69,-2.805 3.046,0 5.884,0.599 8.516,1.8 2.631,1.2 4.373,2.874 5.228,5.021 C -0.427,-12.083 0,-8.702 0,-4.086 L 0,0 z m 1.385,-23.404 c -3.878,-2.262 -7.86,-3.982 -11.945,-5.158 -4.085,-1.177 -8.089,-1.766 -12.013,-1.766 -6.232,0 -10.87,1.465 -13.917,4.396 -3.047,2.932 -4.571,7.282 -4.571,13.053 0,7.063 2.516,12.463 7.547,16.202 5.032,3.739 12.811,5.609 23.335,5.609 L 0,8.932 c -0.277,8.124 -1.443,13.779 -3.496,16.964 -2.056,3.185 -5.691,4.778 -10.906,4.778 -2.77,0 -5.424,-0.278 -7.963,-0.831 -1.339,-2.678 -2.136,-4.11 -2.389,-4.293 -0.255,-0.185 -1.582,-0.589 -3.981,-1.212 -2.402,-0.623 -4.075,-0.508 -5.021,0.347 -0.945,0.853 -1.916,2.412 -2.908,4.673 -0.992,2.261 -1.488,4.085 -1.488,5.47 0,0.924 0.381,1.638 1.142,2.147 0.762,0.507 3.866,1.13 9.313,1.87 5.447,0.737 11.24,1.107 17.38,1.107 8.171,0 14.206,-1.408 18.107,-4.223 3.899,-2.817 5.851,-7.987 5.851,-15.51 l 0,-21.327 c 0,-9.879 0.426,-15.903 1.281,-18.073 0.853,-2.17 2.273,-3.046 4.258,-2.631 0.553,-1.015 0.831,-2.007 0.831,-2.977 0,-1.569 -0.982,-2.77 -2.943,-3.601 -1.963,-0.831 -4.605,-1.246 -7.928,-1.246 -1.617,0 -2.851,0.198 -3.704,0.589 -0.856,0.392 -2.206,2.273 -4.051,5.643"
             id="path3290"
             style="fill:#313555;fill-opacity:1;fill-rule:nonzero;stroke:none" /></g><g
           transform="translate(1237.04,2017.0049)"
           id="g3292"><path
             d="m 0,0 c -5.539,0 -9.544,-1.928 -12.013,-5.781 -2.469,-3.856 -3.704,-10.515 -3.704,-19.977 0,-8.308 1.177,-14.83 3.531,-19.561 2.354,-4.732 6.324,-7.097 11.91,-7.097 2.954,0 5.654,0.589 8.101,1.766 2.446,1.176 4.12,2.723 5.02,4.638 0.9,1.916 1.35,6.636 1.35,14.16 l 0,28.251 C 12.533,-2.678 10.514,-1.847 8.137,-1.108 5.759,-0.37 3.047,0 0,0 m 16.134,-54.771 c -4.201,-2.492 -8.125,-4.269 -11.771,-5.331 -3.647,-1.061 -7.409,-1.592 -11.287,-1.592 -7.847,0 -13.883,2.354 -18.106,7.062 -4.224,4.708 -6.335,12.879 -6.335,24.512 0,12.832 2.814,22.607 8.447,29.324 5.631,6.716 14.056,10.074 25.273,10.074 2.677,0 4.916,-0.138 6.716,-0.415 1.801,-0.277 3.508,-0.623 5.124,-1.039 0,3.416 -0.081,7.073 -0.242,10.976 -0.162,3.899 -0.485,6.657 -0.97,8.273 -0.485,1.615 -1.293,2.655 -2.422,3.116 -1.132,0.461 -2.575,0.693 -4.329,0.693 -0.6,1.431 -0.9,2.839 -0.9,4.223 0,1.431 0.577,2.331 1.731,2.701 1.154,0.369 4.962,0.554 11.425,0.554 3.647,0 6.116,-0.173 7.409,-0.519 1.292,-0.347 2.031,-0.993 2.216,-1.939 0.184,-0.947 0.277,-2.574 0.277,-4.881 l 0,-49.578 c 0,-17.633 0.403,-27.904 1.212,-30.812 0.806,-2.908 2.065,-4.179 3.773,-3.809 0.646,-1.062 0.97,-2.1 0.97,-3.116 0,-1.293 -1.535,-2.517 -4.605,-3.67 -3.07,-1.152 -5.574,-1.73 -7.513,-1.73 -1.155,0 -2.123,0.404 -2.908,1.212 -0.786,0.806 -1.846,2.711 -3.185,5.711"
             id="path3294"
             style="fill:#313555;fill-opacity:1;fill-rule:nonzero;stroke:none" /></g><g
           transform="translate(427.4541,2018.3125)"
           id="g3300"><path
             d="m 0,0 c 5.755,-4.896 11.117,-9.729 15.93,-14.236 7.136,-6.685 13.073,-12.658 17.336,-17.08 13.325,26.14 15.108,54.436 15.103,67.496 0,2.002 -0.041,3.643 -0.088,4.866 C 41.519,31.513 25.789,12.632 0,0"
             id="path3302"
             style="fill:#334d7b;fill-opacity:1;fill-rule:nonzero;stroke:none" /></g><g
           transform="translate(467.0889,2068.4932)"
           id="g3304"><path
             d="m 0,0 c -6.015,3.476 -34.118,18.423 -72.153,18.632 l -0.03,0 -0.045,0 -0.163,0 -0.163,0 -0.042,0 -0.008,0 -0.004,0 -0.02,0 C -110.662,18.423 -138.767,3.476 -144.781,0 c 6.489,-9.379 23.023,-29.902 50.761,-43.075 6.511,-3.093 13.636,-5.781 21.399,-7.828 l 0.23,0.064 0.231,-0.064 c 7.763,2.047 14.888,4.735 21.398,7.828 C -23.023,-29.902 -6.489,-9.379 0,0"
             id="path3306"
             style="fill:#35bcee;fill-opacity:1;fill-rule:nonzero;stroke:none" /></g><g
           transform="translate(328.6768,1986.9961)"
           id="g3308"><path
             d="m 0,0 c 4.263,4.423 10.199,10.396 17.336,17.079 4.812,4.509 10.175,9.341 15.93,14.237 C 7.477,43.948 -8.254,62.829 -15.015,72.362 -15.063,71.14 -15.104,69.496 -15.104,67.493 -15.107,54.433 -13.323,26.139 0,0"
             id="path3310"
             style="fill:#334d7b;fill-opacity:1;fill-rule:nonzero;stroke:none" /></g><g
           transform="translate(453.7236,1977.9854)"
           id="g3312"><path
             d="m 0,0 c -0.217,0.25 -2.423,2.737 -2.962,3.287 -0.281,0.287 -0.621,0.634 -1.011,1.029 -3.691,3.753 -11.824,11.955 -16.246,16.097 -5.098,4.776 -10.8,9.908 -16.924,15.096 -6.439,-3.021 -13.461,-5.655 -21.097,-7.674 l -0.5,-0.15 c -0.172,-0.052 -0.364,-0.053 -0.536,-0.003 l -0.615,0.177 c -0.004,10e-4 -0.005,0.003 -0.008,0.004 -7.601,2.015 -14.595,4.638 -21.009,7.647 -6.124,-5.189 -11.825,-10.321 -16.924,-15.097 -4.484,-4.201 -8.507,-8.128 -11.951,-11.579 -1.712,-1.716 -4.121,-4.248 -5.503,-5.73 -0.46,-0.494 -0.811,-0.875 -0.97,-1.055 -0.042,-0.047 -0.072,-0.082 -0.072,-0.083 l -0.002,0.001 c -0.018,-0.025 -0.033,-0.049 -0.054,-0.071 -1.135,-1.26 -2.216,-2.502 -3.203,-3.696 3.899,-6.324 9.377,-13.696 16.829,-20.704 7.679,-7.221 17.444,-14.054 29.733,-18.962 0.076,-0.03 0.869,-0.372 1.299,-0.533 0.863,-0.32 2.078,-0.766 3.484,-1.262 2.574,-0.909 5.79,-1.988 8.648,-2.792 0.179,-0.051 0.358,-0.1 0.534,-0.149 0.001,0 0.001,10e-4 0.002,10e-4 l 0.003,-10e-4 0,10e-4 c 0.175,0.048 0.353,0.097 0.531,0.148 2.917,0.821 6.206,1.928 8.806,2.849 l 0.011,0.003 c 1.302,0.444 2.579,0.909 3.829,1.394 l 0.01,0.005 c 0.269,0.101 0.481,0.181 0.625,0.236 0.039,0.014 0.072,0.027 0.101,0.038 0.03,0.015 0.053,0.037 0.084,0.049 12.3,4.908 22.072,11.742 29.755,18.965 7.457,7.012 12.94,14.388 16.839,20.714 C 1.167,-1.354 0.587,-0.679 0,0"
             id="path3314"
             style="fill:#313555;fill-opacity:1;fill-rule:nonzero;stroke:none" /></g></g></g></g></svg>