<?xml version="1.0" encoding="UTF-8" standalone="no"?>
<!-- Created with Inkscape (http://www.inkscape.org/) -->

<svg
   xmlns:dc="http://purl.org/dc/elements/1.1/"
   xmlns:cc="http://creativecommons.org/ns#"
   xmlns:rdf="http://www.w3.org/1999/02/22-rdf-syntax-ns#"
   xmlns:svg="http://www.w3.org/2000/svg"
   xmlns="http://www.w3.org/2000/svg"
   xmlns:sodipodi="http://sodipodi.sourceforge.net/DTD/sodipodi-0.dtd"
   xmlns:inkscape="http://www.inkscape.org/namespaces/inkscape"
   width="1004.227"
   height="252.81602"
   id="svg2"
   version="1.1"
   inkscape:version="0.48.5 r10040"
   sodipodi:docname="mailsquad.svg">
  <defs
     id="defs4" />
  <sodipodi:namedview
     id="base"
     pagecolor="#000000"
     bordercolor="#666666"
     borderopacity="1.0"
     inkscape:pageopacity="1"
     inkscape:pageshadow="2"
     inkscape:zoom="1.981"
     inkscape:cx="177.22363"
     inkscape:cy="45.969586"
     inkscape:document-units="px"
     inkscape:current-layer="g3349"
     showgrid="false"
     inkscape:window-width="2560"
     inkscape:window-height="1308"
     inkscape:window-x="2573"
     inkscape:window-y="15"
     inkscape:window-maximized="0"
     fit-margin-top="0"
     fit-margin-left="0"
     fit-margin-right="0"
     fit-margin-bottom="0"
     showborder="false"
     inkscape:showpageshadow="false" />
  <metadata
     id="metadata7">
    <rdf:RDF>
      <cc:Work
         rdf:about="">
        <dc:format>image/svg+xml</dc:format>
        <dc:type
           rdf:resource="http://purl.org/dc/dcmitype/StillImage" />
        <dc:title />
      </cc:Work>
    </rdf:RDF>
  </metadata>
  <g
     inkscape:label="Layer 1"
     inkscape:groupmode="layer"
     id="layer1"
     transform="translate(218.03971,-355.12997)">
    <g
       id="g3349"
       transform="translate(-462.38385,-564.5076)">
      <g
         id="g3448"
         style="fill:#ffffff">
        <path
           style="fill:#ffffff"
           inkscape:connector-curvature="0"
           d="m 319.23214,949.49657 c 17.969,-4.399 35.149,-6.163 51.191,-6.163 0.396,0 0.794,10e-4 1.191,0.003 h 0.053 c 14.549,0.083 28.142,1.611 40.466,3.931 16.209,3.05 30.222,7.474 41.28,11.744 11.379,4.197 31.996,12.92 45.517,25.95 0.2,-4.481 0.272,-8.479 0.273,-11.877 -0.001,-5.802 -0.206,-9.884 -0.322,-11.745 l -0.001,-0.01 c -0.061,-0.946 -0.221,-1.742 -0.404,-2.411 -0.183,-0.657 -0.389,-1.195 -0.59,-1.65 -0.398,-0.894 -0.771,-1.48 -1.086,-1.942 -0.307,-0.443 -0.566,-0.763 -0.79,-1.025 -0.435,-0.501 -0.744,-0.796 -1.001,-1.035 -0.238,-0.22 -0.428,-0.379 -0.592,-0.514 -0.307,-0.25 -0.528,-0.413 -0.722,-0.553 -0.334,-0.24 -0.58,-0.402 -0.803,-0.547 -0.328,-0.212 -0.591,-0.372 -0.794,-0.495 -0.201,-0.121 -0.34,-0.201 -0.38,-0.225 l 0.06,0.034 c -4.463,-2.625 -18.315,-10.315 -39.127,-17.445 -10.406,-3.563 -22.553,-6.984 -36.135,-9.541 -13.582,-2.557 -28.602,-4.248 -44.731,-4.339 l -0.067,-10e-4 h -0.038 l 0.065,10e-4 c -0.439,-0.003 -0.88,-0.004 -1.322,-0.004 -17.778,-10e-4 -36.885,1.959 -56.827,6.844 -8.088,1.979 -16.313,4.451 -24.639,7.453 -2.343,8.168 -4.348,17.616 -5.041,27.476 12.04,-5.209 23.841,-9.103 35.316,-11.914 z m 156,13.334 -0.001,-0.01 0.001,0.01 z"
           id="path3187" />
        <path
           style="fill:#ffffff"
           inkscape:connector-curvature="0"
           d="m 362.26414,1170.1686 c 0.466,0.177 0.918,0.341 1.354,0.491 -0.451,-0.164 -0.907,-0.324 -1.354,-0.491 z"
           id="path3189" />
        <path
           style="fill:#ffffff"
           inkscape:connector-curvature="0"
           d="m 475.13314,986.43957 c -0.491,8.982 -1.554,19.90603 -3.693,31.82103 -1.683,9.372 -4.03,19.354 -7.269,29.485 -3.237,10.13 -7.367,20.406 -12.6,30.387 -3.924,7.486 -8.468,14.807 -13.723,21.793 -7.886,10.48 -17.36,20.21 -28.824,28.685 -9.399,6.942 -20.143,13.049 -32.516,18.008 -1.553,0.622 -3.131,1.226 -4.734,1.812 -0.039,-0.015 -3.555,1.271 -5.336,1.896 -10.544,3.699 -22.37,6.502 -33.151,5.922 8.663,5.214 18.135,9.838 28.451,13.729 -0.005,-0.01 -0.009,-0.011 -0.009,-0.011 0.183,0.071 0.355,0.134 0.534,0.202 0.447,0.167 0.903,0.327 1.354,0.491 5.181,1.789 8.183,1.794 8.183,1.794 2.254,0 4.737,-0.645 6.288,-1.13 11.22,-3.965 21.487,-8.764 30.814,-14.262 14.992,-8.835 27.59,-19.435 38.077,-31.015 10.492,-11.581 18.88,-24.132 25.579,-36.912 5.955,-11.362 10.582,-22.909 14.183,-34.174 5.4,-16.898 8.501,-33.166 10.267,-47.308 0.187,-1.489 0.354,-2.95 0.512,-4.391 -5.482,-4.89803 -13.192,-11.13803 -22.387,-16.82203 z"
           id="path3191" />
        <path
           style="fill:#ffffff"
           inkscape:connector-curvature="0"
           d="m 361.73014,1169.9666 c 0,0 0.004,0.01 0.009,0.011 0.173,0.065 0.352,0.126 0.525,0.191 -0.179,-0.069 -0.352,-0.131 -0.534,-0.202 z"
           id="path3193" />
        <path
           style="fill:#ffffff"
           inkscape:connector-curvature="0"
           d="m 350.52814,1138.8256 c -1.349,-0.739 -2.683,-1.489 -3.984,-2.259 -12.853,-7.597 -23.545,-16.618 -32.531,-26.559 -8.982,-9.938 -16.25,-20.806 -22.128,-32.048 -5.212,-9.97 -9.324,-20.23 -12.551,-30.344 -4.84,-15.17 -7.678,-30.006 -9.289,-42.949 -0.249,-2 -0.47,-3.955 -0.664,-5.85703 -0.16,-1.577 -0.303,-3.119 -0.43,-4.622 -0.31,-3.68 -0.936,-11.779 -0.989,-14.23 -0.029,-1.346 -0.052,-2.974 -0.05,-4.833 0.007,-8.304 0.509,-21.2 3.182,-33.965 -6.39,2.874 -12.822,6.077 -19.283,9.644 l 0.039,-0.022 -1.02,0.558 c -3.545,1.938 -5.865,5.569 -6.137,9.6 l -0.012,0.183 -0.002,0.027 c -0.115,1.771 -0.335,5.934 -0.335,11.943 0.002,11.194 0.755,28.79003 4.424,49.27303 1.837,10.241 4.404,21.207 7.99,32.452 3.587,11.245 8.195,22.773 14.126,34.121 4.458,8.529 9.667,16.956 15.751,25.064 5.948,7.931 12.741,15.557 20.47,22.66 3.042,2.909 8.653,7.475 8.653,7.475 18.958,-0.593 34.77,-5.312 34.77,-5.312 z"
           id="path3195" />
        <g
           transform="translate(-17.142857,671.42857)"
           id="g3197"
           style="fill:#ffffff">
          <path
             style="fill:#ffffff"
             inkscape:connector-curvature="0"
             d="m 585.069,328.561 h 28.458 c 2.216,8.031 5.308,18.234 9.278,30.604 3.97,12.371 7.062,22.469 9.278,30.293 2.216,7.825 3.485,11.737 3.809,11.737 0.322,0 3.415,-9.947 9.278,-29.844 5.862,-19.896 9.786,-34.159 11.771,-42.791 h 28.043 c 0.554,1.385 0.831,2.724 0.831,4.016 0,1.154 -0.231,1.963 -0.692,2.424 -0.462,0.462 -1.27,0.692 -2.424,0.692 h -4.569 c -0.185,8.493 -0.047,22.389 0.415,41.684 0.461,19.295 0.923,32.151 1.385,38.567 h 6.717 c 0.6,1.385 0.9,2.725 0.9,4.016 0,1.154 -0.231,1.963 -0.692,2.424 -0.462,0.462 -1.293,0.692 -2.493,0.692 h -27.143 c -0.601,-1.568 -0.9,-3.022 -0.9,-4.362 0,-0.97 0.242,-1.673 0.728,-2.111 0.484,-0.438 1.28,-0.658 2.389,-0.658 h 4.085 c 0.369,-8.032 0.208,-32.45 -0.484,-73.258 -3.601,13.849 -7.756,27.951 -12.464,42.307 -4.708,14.357 -7.824,22.85 -9.348,25.481 -1.523,2.631 -3.993,3.946 -7.408,3.946 -4.894,0 -7.629,-0.184 -8.206,-0.554 -0.577,-0.369 -3.67,-8.436 -9.277,-24.2 -5.609,-15.763 -10.537,-31.54 -14.784,-47.327 -0.138,41.038 -0.046,65.572 0.277,73.604 h 6.439 c 0.554,1.385 0.831,2.725 0.831,4.016 0,1.154 -0.231,1.963 -0.692,2.424 -0.462,0.462 -1.27,0.692 -2.424,0.692 H 580.5 c -0.554,-1.568 -0.83,-3.022 -0.83,-4.362 0,-0.97 0.242,-1.673 0.727,-2.111 0.485,-0.438 1.281,-0.658 2.389,-0.658 h 5.056 c 0.507,-6.416 0.979,-19.272 1.419,-38.567 0.438,-19.295 0.611,-33.19 0.52,-41.684 h -6.994 c -0.553,-1.568 -0.83,-3.023 -0.83,-4.362 0,-0.97 0.242,-1.673 0.727,-2.112 0.48,-0.438 1.276,-0.658 2.385,-0.658 z"
             id="path3199" />
          <path
             style="fill:#ffffff"
             inkscape:connector-curvature="0"
             d="m 741.347,417.537 c -3.878,2.262 -7.859,3.981 -11.944,5.158 -4.085,1.177 -8.091,1.766 -12.014,1.766 -6.231,0 -10.871,-1.465 -13.917,-4.396 -3.047,-2.932 -4.57,-7.281 -4.57,-13.053 0,-7.062 2.516,-12.463 7.547,-16.202 5.031,-3.739 12.81,-5.608 23.335,-5.608 h 10.179 c -0.277,-8.124 -1.443,-13.779 -3.497,-16.965 -2.055,-3.185 -5.689,-4.777 -10.905,-4.777 -2.771,0 -5.425,0.277 -7.963,0.831 -1.34,2.678 -2.136,4.109 -2.389,4.293 -0.254,0.185 -1.582,0.589 -3.981,1.212 -2.401,0.623 -4.074,0.508 -5.021,-0.347 -0.946,-0.854 -1.916,-2.412 -2.908,-4.674 -0.993,-2.261 -1.488,-4.085 -1.488,-5.47 0,-0.924 0.381,-1.638 1.143,-2.146 0.762,-0.508 3.865,-1.131 9.312,-1.87 5.446,-0.737 11.24,-1.107 17.38,-1.107 8.171,0 14.206,1.408 18.106,4.224 3.9,2.816 5.852,7.986 5.852,15.51 v 21.327 c 0,9.879 0.426,15.902 1.28,18.072 0.854,2.17 2.273,3.046 4.259,2.631 0.554,1.016 0.831,2.008 0.831,2.978 0,1.569 -0.981,2.77 -2.942,3.601 -1.963,0.831 -4.605,1.246 -7.929,1.246 -1.616,0 -2.851,-0.197 -3.704,-0.589 -0.856,-0.394 -2.206,-2.275 -4.052,-5.645 z m -1.385,-23.405 c -3.971,-0.692 -8.078,-1.038 -12.325,-1.038 -5.263,0 -8.944,0.877 -11.044,2.631 -2.101,1.755 -3.15,4.524 -3.15,8.31 0,3.693 0.935,6.474 2.804,8.343 1.87,1.87 4.767,2.805 8.689,2.805 3.047,0 5.886,-0.599 8.518,-1.8 2.631,-1.2 4.373,-2.874 5.228,-5.021 0.854,-2.146 1.281,-5.527 1.281,-10.144 v -4.086 z"
             id="path3201" />
          <path
             style="fill:#ffffff"
             inkscape:connector-curvature="0"
             d="m 794.801,415.944 h 7.34 c 0.601,1.201 0.9,2.492 0.9,3.877 0,1.247 -0.254,2.102 -0.762,2.562 -0.508,0.462 -1.501,0.692 -2.978,0.692 H 772.09 c -0.554,-1.477 -0.831,-2.861 -0.831,-4.154 0,-1.015 0.242,-1.766 0.727,-2.251 0.485,-0.484 1.327,-0.727 2.528,-0.727 h 5.124 c 0.322,-6.416 0.484,-13.94 0.484,-22.573 0,-10.524 -0.081,-17.553 -0.242,-21.084 -0.162,-3.531 -0.543,-5.965 -1.143,-7.305 -0.601,-1.339 -1.443,-2.17 -2.527,-2.493 -1.085,-0.322 -2.436,-0.484 -4.051,-0.484 -0.601,-0.97 -0.9,-2.1 -0.9,-3.393 0,-1.893 0.9,-3.047 2.7,-3.462 1.801,-0.416 5.286,-0.624 10.456,-0.624 3.646,0 6.116,0.174 7.408,0.52 1.293,0.347 2.031,0.993 2.217,1.939 0.184,0.946 0.276,2.573 0.276,4.881 v 31.505 c 10e-4,8.633 0.162,16.158 0.485,22.574 z m -9.832,-73.258 c -3.001,0 -5.216,-0.623 -6.647,-1.87 -1.431,-1.246 -2.146,-3.046 -2.146,-5.4 0.046,-2.538 0.97,-4.57 2.77,-6.094 1.801,-1.522 4.34,-2.284 7.617,-2.284 3.23,0 5.539,0.657 6.924,1.974 1.385,1.315 2.077,3.081 2.077,5.297 0,2.492 -0.854,4.512 -2.562,6.059 -1.709,1.546 -4.386,2.318 -8.033,2.318 z"
             id="path3203" />
          <path
             style="fill:#ffffff"
             inkscape:connector-curvature="0"
             d="m 821.806,383.4 c 0,-19.525 -0.093,-31.955 -0.277,-37.286 -0.185,-5.332 -0.52,-8.805 -1.004,-10.421 -0.484,-1.615 -1.281,-2.654 -2.389,-3.116 -1.107,-0.461 -2.562,-0.692 -4.362,-0.692 -0.601,-1.431 -0.9,-2.839 -0.9,-4.224 0,-1.431 0.589,-2.33 1.766,-2.7 1.178,-0.369 4.974,-0.555 11.391,-0.555 3.646,0 6.116,0.174 7.409,0.52 1.291,0.347 2.03,0.993 2.215,1.938 0.185,0.947 0.277,2.574 0.277,4.882 v 57.956 c 0.046,11.078 0.23,19.826 0.555,26.242 h 7.686 c 0.554,1.201 0.831,2.492 0.831,3.877 0,1.247 -0.255,2.102 -0.762,2.562 -0.509,0.462 -1.478,0.692 -2.909,0.692 h -27.558 c -0.601,-1.477 -0.9,-2.861 -0.9,-4.154 0,-1.015 0.254,-1.766 0.762,-2.251 0.508,-0.484 1.339,-0.727 2.493,-0.727 h 5.124 c 0.367,-6.415 0.552,-17.263 0.552,-32.543 z"
             id="path3205" />
          <path
             style="fill:#ffffff"
             inkscape:connector-curvature="0"
             d="m 929.062,327.175 c 10.016,0 16.964,0.589 20.841,1.766 3.878,1.178 5.816,3.452 5.816,6.821 0,3.093 -1.246,5.84 -3.739,8.239 -9.693,-4.432 -18.695,-6.646 -27.004,-6.646 -5.862,0 -10.006,1.166 -12.429,3.496 -2.424,2.331 -3.636,5.551 -3.636,9.659 0,4.293 1.442,7.71 4.328,10.248 2.885,2.539 8.367,5.078 16.444,7.616 9.556,2.863 16.792,6.152 21.708,9.867 4.916,3.716 7.513,9.729 7.79,18.037 0,9.278 -3.175,16.296 -9.521,21.05 -6.347,4.755 -16.053,7.132 -29.116,7.132 -9.094,0 -15.994,-0.646 -20.703,-1.938 -4.708,-1.292 -7.062,-3.692 -7.062,-7.201 0,-3.186 1.338,-6 4.016,-8.447 9.141,4.985 18.649,7.478 28.528,7.478 6.785,0 11.608,-1.107 14.472,-3.323 2.861,-2.216 4.293,-5.632 4.293,-10.248 0,-5.539 -2.066,-9.693 -6.197,-12.464 -4.132,-2.77 -10.722,-5.584 -19.769,-8.447 -8.771,-2.677 -15.015,-6.035 -18.73,-10.074 -3.715,-4.039 -5.574,-9.336 -5.574,-15.892 0,-8.17 3.035,-14.667 9.106,-19.491 6.069,-4.825 14.782,-7.238 26.138,-7.238 z"
             id="path3207" />
          <path
             style="fill:#ffffff"
             inkscape:connector-curvature="0"
             d="m 1018.175,446.411 c 0.323,-6.879 0.485,-16.157 0.485,-27.836 -2.816,1.801 -6.024,3.231 -9.625,4.293 -3.601,1.062 -7.363,1.593 -11.286,1.593 -8.31,0 -14.495,-2.492 -18.557,-7.479 -4.062,-4.985 -6.094,-12.924 -6.094,-23.818 0,-13.387 2.908,-23.346 8.725,-29.878 5.817,-6.532 14.148,-9.798 24.996,-9.798 2.446,0 4.801,0.162 7.062,0.484 2.262,0.323 4.709,0.831 7.34,1.523 l 2.354,-5.608 c 3.23,0 5.446,0.208 6.647,0.623 1.199,0.415 1.961,1.132 2.285,2.146 0.322,1.016 0.484,2.608 0.484,4.777 l -0.139,65.572 c 0,8.725 0.161,16.525 0.484,23.404 h 5.955 c 0.6,1.2 0.9,2.492 0.9,3.877 0,1.246 -0.255,2.101 -0.762,2.562 -0.508,0.46 -1.5,0.692 -2.978,0.692 h -27.559 c -0.554,-1.479 -0.831,-2.863 -0.831,-4.155 0,-1.016 0.243,-1.766 0.728,-2.25 0.485,-0.484 1.326,-0.727 2.527,-0.727 h 6.859 z m -13.363,-83.645 c -6.001,0 -10.179,2.043 -12.533,6.128 -2.354,4.085 -3.531,10.282 -3.531,18.592 0,9.51 1.2,16.503 3.601,20.979 2.4,4.479 6.209,6.717 11.426,6.717 3.046,0 5.804,-0.554 8.274,-1.662 2.469,-1.107 4.188,-2.792 5.158,-5.055 0.969,-2.261 1.454,-6.093 1.454,-11.494 v -30.604 c -1.755,-1.015 -3.809,-1.869 -6.163,-2.562 -2.354,-0.692 -4.916,-1.039 -7.686,-1.039 z"
             id="path3209" />
          <path
             style="fill:#ffffff"
             inkscape:connector-curvature="0"
             d="m 1109.16,395.241 c 0,9.278 0.369,14.979 1.107,17.103 0.738,2.124 2.216,3.07 4.432,2.839 0.554,1.107 0.831,2.193 0.831,3.254 0,1.709 -1.315,3.024 -3.946,3.947 -2.632,0.923 -5.193,1.385 -7.687,1.385 -1.616,0 -2.793,-0.323 -3.531,-0.97 -0.739,-0.646 -1.893,-2.399 -3.462,-5.262 -3.693,2.123 -7.513,3.809 -11.46,5.055 -3.946,1.246 -8.09,1.869 -12.429,1.869 -5.724,0 -10.167,-1.581 -13.329,-4.743 -3.162,-3.161 -4.743,-8.967 -4.743,-17.414 0,-16.479 -0.081,-26.485 -0.242,-30.017 -0.162,-3.531 -0.543,-5.965 -1.143,-7.305 -0.6,-1.339 -1.385,-2.17 -2.354,-2.493 -0.97,-0.322 -2.031,-0.484 -3.185,-0.484 -0.601,-0.97 -0.9,-2.053 -0.9,-3.254 0,-1.616 1.131,-2.724 3.393,-3.324 2.262,-0.599 5.401,-0.9 9.417,-0.9 3.186,0 5.366,0.197 6.544,0.589 1.177,0.393 1.915,1.039 2.216,1.938 0.3,0.9 0.45,3.937 0.45,9.105 v 26.104 c 0,9.463 1.049,15.648 3.15,18.557 2.1,2.908 5.02,4.362 8.759,4.362 2.632,0 5.193,-0.554 7.686,-1.662 2.493,-1.107 4.166,-2.653 5.021,-4.639 0.854,-1.984 1.281,-5.816 1.281,-11.494 0,-13.201 -0.059,-21.511 -0.174,-24.928 -0.115,-3.415 -0.438,-5.851 -0.969,-7.305 -0.531,-1.454 -1.235,-2.343 -2.112,-2.666 -0.878,-0.322 -2.008,-0.484 -3.393,-0.484 -0.601,-0.97 -0.9,-2.053 -0.9,-3.254 0,-1.616 1.188,-2.724 3.565,-3.324 2.378,-0.599 5.343,-0.9 8.898,-0.9 3.185,0 5.365,0.197 6.543,0.589 1.178,0.393 1.915,1.098 2.216,2.112 0.3,1.016 0.45,4.109 0.45,9.278 v 28.736 z"
             id="path3211" />
          <path
             style="fill:#ffffff"
             inkscape:connector-curvature="0"
             d="m 1169.4,417.537 c -3.878,2.262 -7.859,3.981 -11.944,5.158 -4.085,1.177 -8.09,1.766 -12.014,1.766 -6.231,0 -10.87,-1.465 -13.917,-4.396 -3.047,-2.931 -4.57,-7.281 -4.57,-13.053 0,-7.062 2.516,-12.463 7.547,-16.202 5.031,-3.739 12.811,-5.608 23.335,-5.608 h 10.179 c -0.277,-8.124 -1.443,-13.779 -3.496,-16.965 -2.056,-3.185 -5.69,-4.777 -10.906,-4.777 -2.77,0 -5.424,0.277 -7.963,0.831 -1.339,2.678 -2.136,4.109 -2.389,4.293 -0.255,0.185 -1.582,0.589 -3.981,1.212 -2.401,0.623 -4.074,0.508 -5.021,-0.347 -0.945,-0.854 -1.916,-2.412 -2.908,-4.674 -0.992,-2.261 -1.488,-4.085 -1.488,-5.47 0,-0.924 0.381,-1.638 1.143,-2.146 0.762,-0.508 3.866,-1.131 9.312,-1.87 5.447,-0.737 11.24,-1.107 17.38,-1.107 8.171,0 14.206,1.408 18.107,4.224 3.899,2.816 5.851,7.986 5.851,15.51 v 21.327 c 0,9.879 0.427,15.902 1.281,18.072 0.854,2.17 2.273,3.046 4.258,2.631 0.554,1.016 0.831,2.008 0.831,2.978 0,1.569 -0.981,2.77 -2.942,3.601 -1.963,0.831 -4.605,1.246 -7.929,1.246 -1.616,0 -2.851,-0.197 -3.704,-0.589 -0.857,-0.394 -2.206,-2.275 -4.052,-5.645 z m -1.385,-23.405 c -3.971,-0.692 -8.078,-1.038 -12.325,-1.038 -5.263,0 -8.943,0.877 -11.044,2.631 -2.102,1.755 -3.15,4.524 -3.15,8.31 0,3.693 0.935,6.474 2.805,8.343 1.869,1.87 4.766,2.805 8.689,2.805 3.046,0 5.885,-0.599 8.517,-1.8 2.631,-1.2 4.373,-2.874 5.228,-5.021 0.855,-2.147 1.281,-5.527 1.281,-10.144 v -4.086 z"
             id="path3213" />
          <path
             style="fill:#ffffff"
             inkscape:connector-curvature="0"
             d="m 1247.504,417.537 c -4.201,2.492 -8.125,4.27 -11.771,5.331 -3.647,1.062 -7.409,1.593 -11.287,1.593 -7.848,0 -13.883,-2.354 -18.106,-7.062 -4.223,-4.708 -6.335,-12.879 -6.335,-24.512 0,-12.832 2.814,-22.607 8.447,-29.324 5.631,-6.716 14.056,-10.074 25.273,-10.074 2.677,0 4.916,0.139 6.716,0.415 1.801,0.277 3.508,0.623 5.124,1.039 0,-3.416 -0.081,-7.073 -0.242,-10.976 -0.162,-3.899 -0.485,-6.657 -0.97,-8.273 -0.485,-1.615 -1.293,-2.654 -2.423,-3.116 -1.132,-0.461 -2.574,-0.692 -4.328,-0.692 -0.601,-1.431 -0.9,-2.839 -0.9,-4.224 0,-1.431 0.577,-2.33 1.731,-2.7 1.153,-0.369 4.962,-0.555 11.425,-0.555 3.646,0 6.115,0.174 7.409,0.52 1.292,0.347 2.03,0.993 2.216,1.938 0.184,0.947 0.276,2.574 0.276,4.882 v 49.577 c 0,17.634 0.403,27.904 1.212,30.812 0.807,2.908 2.065,4.179 3.773,3.809 0.646,1.062 0.97,2.101 0.97,3.116 0,1.293 -1.535,2.517 -4.604,3.67 -3.07,1.152 -5.574,1.73 -7.514,1.73 -1.154,0 -2.123,-0.404 -2.907,-1.212 -0.785,-0.807 -1.846,-2.711 -3.185,-5.712 z m -16.133,-54.771 c -5.539,0 -9.544,1.928 -12.013,5.781 -2.47,3.855 -3.704,10.515 -3.704,19.977 0,8.309 1.177,14.83 3.531,19.562 2.354,4.731 6.323,7.097 11.909,7.097 2.954,0 5.654,-0.589 8.102,-1.766 2.446,-1.177 4.12,-2.724 5.02,-4.639 0.9,-1.916 1.351,-6.636 1.351,-14.16 v -28.251 c -1.662,-0.923 -3.682,-1.754 -6.059,-2.492 -2.379,-0.739 -5.091,-1.109 -8.137,-1.109 z"
             id="path3215" />
        </g>
        <path
           style="fill:#ffffff"
           inkscape:connector-curvature="0"
           d="m 404.64214,1032.8866 c 5.755,4.896 11.117,9.729 15.93,14.236 7.137,6.685 13.073,12.657 17.336,17.08 13.325,-26.141 15.108,-54.437 15.104,-67.49603 0,-2.002 -0.041,-3.644 -0.088,-4.866 -6.764,9.53403 -22.493,28.41503 -48.282,41.04603 z"
           id="path3221" />
        <path
           style="fill:#ffffff"
           inkscape:connector-curvature="0"
           d="m 444.27614,982.70657 c -6.015,-3.476 -34.118,-18.423 -72.153,-18.632 h -0.029 -0.045 c -0.049,0 -0.104,0 -0.163,0 -0.059,0 -0.114,0 -0.163,0 h -0.042 -0.008 -0.005 -0.02 c -38.034,0.209 -66.139,15.156 -72.153,18.632 6.489,9.379 23.023,29.90203 50.762,43.07503 6.511,3.093 13.636,5.781 21.398,7.828 l 0.23,-0.064 0.23,0.064 c 7.763,-2.047 14.888,-4.735 21.398,-7.828 27.74,-13.173 44.274,-33.69603 50.763,-43.07503 z"
           id="path3223" />
        <path
           style="fill:#ffffff"
           inkscape:connector-curvature="0"
           d="m 305.86414,1064.2036 c 4.263,-4.423 10.199,-10.396 17.336,-17.079 4.812,-4.509 10.175,-9.341 15.93,-14.237 -25.789,-12.632 -41.52,-31.513 -48.28,-41.04603 -0.048,1.223 -0.089,2.866 -0.089,4.869 -0.004,13.06003 1.78,41.35403 15.103,67.49303 z"
           id="path3225" />
        <path
           style="fill:#ffffff"
           inkscape:connector-curvature="0"
           d="m 430.91114,1073.2146 c -0.217,-0.25 -2.423,-2.737 -2.962,-3.287 -0.281,-0.287 -0.621,-0.634 -1.011,-1.029 -3.691,-3.753 -11.824,-11.954 -16.246,-16.097 -5.099,-4.776 -10.8,-9.908 -16.924,-15.096 -6.439,3.021 -13.462,5.655 -21.098,7.674 l -0.5,0.15 c -0.172,0.052 -0.363,0.053 -0.536,0 l -0.614,-0.178 c -0.004,-10e-4 -0.006,0 -0.009,0 -7.601,-2.015 -14.595,-4.638 -21.009,-7.646 -6.124,5.188 -11.825,10.32 -16.924,15.097 -4.484,4.201 -8.507,8.128 -11.951,11.579 -1.712,1.716 -4.121,4.248 -5.503,5.729 -0.46,0.494 -0.811,0.875 -0.97,1.056 -0.042,0.047 -0.072,0.082 -0.072,0.083 l -0.002,0 c -0.018,0.024 -0.033,0.049 -0.054,0.071 -1.135,1.26 -2.216,2.502 -3.203,3.695 3.898,6.324 9.377,13.696 16.829,20.704 7.679,7.221 17.443,14.054 29.732,18.962 0.076,0.03 0.869,0.372 1.3,0.533 0.862,0.32 2.077,0.766 3.483,1.262 2.574,0.909 5.79,1.988 8.648,2.792 0.179,0.051 0.357,0.101 0.534,0.149 0.001,0 0.001,-10e-4 0.002,-10e-4 l 0.003,10e-4 v -10e-4 c 0.175,-0.048 0.353,-0.098 0.53,-0.148 2.917,-0.82 6.206,-1.928 8.807,-2.849 l 0.011,0 c 1.302,-0.444 2.579,-0.909 3.829,-1.395 l 0.01,-0.01 c 0.27,-0.101 0.481,-0.181 0.625,-0.235 0.039,-0.015 0.072,-0.027 0.102,-0.038 0.029,-0.016 0.053,-0.037 0.084,-0.05 12.3,-4.907 22.071,-11.741 29.755,-18.965 7.457,-7.012 12.939,-14.388 16.839,-20.714 -0.368,-0.444 -0.948,-1.12 -1.535,-1.798 z"
           id="path3227" />
      </g>
    </g>
  </g>
</svg>
