<?xml version="1.0" encoding="UTF-8" standalone="no"?>
<!-- Created with Inkscape (http://www.inkscape.org/) -->

<svg
   xmlns:dc="http://purl.org/dc/elements/1.1/"
   xmlns:cc="http://creativecommons.org/ns#"
   xmlns:rdf="http://www.w3.org/1999/02/22-rdf-syntax-ns#"
   xmlns:svg="http://www.w3.org/2000/svg"
   xmlns="http://www.w3.org/2000/svg"
   version="1.1"
   viewBox="0,0,1255.2872,316.02597"
   preserveAspectRatio="xMidYMid meet"
   id="svg3732"
   xml:space="preserve"><metadata
     id="metadata3738"><rdf:RDF><cc:Work
         rdf:about=""><dc:format>image/svg+xml</dc:format><dc:type
           rdf:resource="http://purl.org/dc/dcmitype/StillImage" /><dc:title></dc:title></cc:Work></rdf:RDF></metadata><defs
     id="defs3736"><clipPath
       id="clipPath3748"><path
         d="m 0,0 10940.7,0 0,14669 L 0,14669 0,0 z"
         id="path3750" /></clipPath></defs><g
     transform="matrix(1.25,0,0,-1.25,-308.22917,1163.3287)"
     id="g3740"><g
       transform="scale(0.144922,0.144922)"
       clip-path="url(#clipPath3748)"
       id="g3746"><g
         id="g4047"><path
           d="m 3294.68,6123.79 0,0.07 0,-0.07 z m -1076.44,91.98 c 123.99,30.37 242.54,42.51 353.22,42.51 2.75,0 5.49,0 8.24,0 l 0.36,0 c 100.38,-0.55 194.19,-11.11 279.22,-27.12 111.84,-21.05 208.54,-51.54 284.85,-81.01 78.51,-28.98 220.77,-89.15 314.08,-179.06 1.38,30.91 1.87,58.52 1.88,81.91 -0.01,40.02 -1.42,68.24 -2.22,81.07 l -0.01,0.07 c -0.41,6.56 -1.52,12.01 -2.79,16.63 -1.26,4.56 -2.69,8.28 -4.07,11.39 -2.75,6.14 -5.32,10.21 -7.49,13.38 -2.12,3.11 -3.9,5.32 -5.46,7.11 -2.99,3.45 -5.13,5.45 -6.9,7.11 -1.65,1.52 -2.95,2.62 -4.09,3.59 -2.11,1.72 -3.64,2.83 -4.97,3.79 -2.31,1.66 -4.01,2.76 -5.54,3.8 -2.27,1.45 -4.09,2.55 -5.48,3.38 -1.39,0.83 -2.34,1.38 -2.63,1.59 l 0.42,-0.28 c -30.8,18.15 -126.39,71.21 -269.98,120.41 -71.81,24.57 -155.63,48.16 -249.35,65.83 -93.71,17.59 -197.36,29.33 -308.67,29.95 l -0.72,0 0.45,0 c -3.03,0 -6.07,0 -9.13,0 -122.67,0 -254.5,-13.53 -392.12,-47.2 -55.8,-13.67 -112.56,-30.71 -170.01,-51.48 -16.16,-56.3 -30,-121.51 -34.79,-189.55 83.09,35.95 164.51,62.79 243.7,82.18"
           id="path3826"
           style="fill:#ffffff;fill-opacity:1;fill-rule:nonzero;stroke:none" /><path
           d="m 2515.17,4693.09 c 3.22,-1.24 6.34,-2.35 9.34,-3.38 -3.1,1.1 -6.26,2.2 -9.34,3.38"
           id="path3828"
           style="fill:#ffffff;fill-opacity:1;fill-rule:nonzero;stroke:none" /><path
           d="m 3294,5960.88 c -3.39,-61.97 -10.72,-137.39 -25.49,-219.57 -11.61,-64.72 -27.81,-133.59 -50.15,-203.49 -22.34,-69.9 -50.83,-140.77 -86.93,-209.63 -27.08,-51.68 -58.44,-102.19 -94.7,-150.42 -54.41,-72.32 -119.79,-139.46 -198.9,-197.91 -64.85,-47.88 -138.99,-90.04 -224.37,-124.27 -10.71,-4.28 -21.6,-8.49 -32.66,-12.49 -0.27,0.07 -24.53,-8.76 -36.82,-13.11 -72.75,-25.53 -154.36,-44.85 -228.76,-40.85 59.78,-35.95 125.14,-67.9 196.33,-94.74 -0.03,0.07 -0.06,0.07 -0.06,0.07 1.26,-0.49 2.45,-0.9 3.68,-1.38 3.08,-1.18 6.24,-2.28 9.34,-3.38 35.75,-12.35 56.47,-12.42 56.47,-12.42 15.55,0 32.69,4.48 43.38,7.79 77.43,27.4 148.28,60.52 212.64,98.47 103.45,60.93 190.37,134.07 262.74,213.98 72.4,79.9 130.28,166.5 176.5,254.69 41.1,78.46 73.02,158.08 97.86,235.85 37.27,116.61 58.67,228.81 70.85,326.38 1.28,10.28 2.44,20.43 3.53,30.3 -37.84,33.81 -91.04,76.93 -154.48,116.13"
           id="path3830"
           style="fill:#ffffff;fill-opacity:1;fill-rule:nonzero;stroke:none" /><path
           d="m 2511.49,4694.47 c 0,0 0.03,0 0.06,-0.07 1.19,-0.42 2.41,-0.83 3.62,-1.31 -1.23,0.48 -2.42,0.89 -3.68,1.38"
           id="path3832"
           style="fill:#ffffff;fill-opacity:1;fill-rule:nonzero;stroke:none" /><path
           d="m 2434.2,4909.34 c -9.31,5.11 -18.52,10.28 -27.5,15.6 -88.69,52.44 -162.47,114.68 -224.47,183.27 -61.98,68.59 -112.14,143.59 -152.7,221.15 -35.96,68.8 -64.33,139.6 -86.6,209.36 -33.39,104.67 -52.97,207.08 -64.1,296.37 -1.72,13.8 -3.24,27.32 -4.58,40.43 -1.11,10.9 -2.09,21.53 -2.96,31.88 -2.13,25.39 -6.46,81.28 -6.83,98.19 -0.2,9.32 -0.36,20.5 -0.35,33.33 0.06,57.34 3.52,146.28 21.96,234.4 -44.09,-19.87 -88.47,-41.95 -133.05,-66.52 l 0.26,0.14 -7.03,-3.86 c -24.46,-13.39 -40.48,-38.44 -42.34,-66.25 l -0.09,-1.24 -0.02,-0.2 c -0.78,-12.22 -2.31,-40.93 -2.31,-82.39 0.02,-77.29 5.22,-198.66 30.54,-340.05 12.67,-70.66 30.38,-146.29 55.13,-223.91 24.75,-77.56 56.54,-157.13 97.46,-235.44 30.77,-58.86 66.72,-117.03 108.7,-172.92 41.04,-54.79 87.91,-107.37 141.25,-156.36 20.99,-20.08 59.7,-51.62 59.7,-51.62 130.81,4.07 239.93,36.64 239.93,36.64"
           id="path3834"
           style="fill:#ffffff;fill-opacity:1;fill-rule:nonzero;stroke:none" /><path
           d="m 3934.29,5867.38 196.37,0 c 15.29,-55.41 36.63,-125.86 64.02,-211.22 27.39,-85.36 48.74,-154.98 64.03,-209.01 15.29,-53.96 24.05,-81.01 26.27,-81.01 2.23,0 23.58,68.66 64.03,205.97 40.45,137.25 67.53,235.72 81.23,295.27 l 193.5,0 c 3.82,-9.59 5.74,-18.77 5.74,-27.74 0,-7.94 -1.6,-13.53 -4.78,-16.7 -3.19,-3.17 -8.77,-4.76 -16.73,-4.76 l -31.53,0 c -1.28,-58.65 -0.32,-154.5 2.87,-287.67 3.18,-133.11 6.36,-221.85 9.55,-266.08 l 46.35,0 c 4.13,-9.59 6.21,-18.84 6.21,-27.74 0,-7.93 -1.6,-13.52 -4.78,-16.7 -3.19,-3.24 -8.93,-4.83 -17.2,-4.83 l -187.29,0 c -4.15,10.84 -6.22,20.91 -6.22,30.16 0,6.69 1.68,11.52 5.02,14.56 3.35,3.03 8.84,4.55 16.48,4.55 l 28.19,0 c 2.55,55.41 1.43,223.91 -3.34,505.45 -24.85,-95.5 -53.51,-192.86 -86,-291.88 -32.49,-99.09 -53.99,-157.68 -64.5,-175.82 -10.52,-18.22 -27.55,-27.26 -51.13,-27.26 -33.76,0 -52.63,1.24 -56.61,3.79 -3.99,2.56 -25.33,58.24 -64.02,166.99 -38.71,108.82 -72.7,217.64 -102.01,326.59 -0.96,-283.18 -0.33,-452.45 1.91,-507.86 l 44.42,0 c 3.84,-9.59 5.75,-18.84 5.75,-27.74 0,-7.93 -1.6,-13.52 -4.78,-16.7 -3.19,-3.24 -8.76,-4.83 -16.72,-4.83 l -175.83,0 c -3.83,10.84 -5.74,20.91 -5.74,30.16 0,6.69 1.68,11.52 5.02,14.56 3.35,3.03 8.84,4.55 16.49,4.55 l 34.88,0 c 3.5,44.23 6.76,132.97 9.79,266.08 3.02,133.17 4.22,229.02 3.58,287.67 l -48.25,0 c -3.83,10.83 -5.74,20.84 -5.74,30.09 0,6.69 1.68,11.52 5.02,14.55 3.35,3.04 8.84,4.56 16.48,4.56"
           id="path3836"
           style="fill:#ffffff;fill-opacity:1;fill-rule:nonzero;stroke:none" /><path
           d="m 5003.11,5414.93 c -27.4,4.76 -55.75,7.17 -85.06,7.17 -36.3,0 -61.71,-6.07 -76.21,-18.21 -14.48,-12.08 -21.73,-31.19 -21.73,-57.28 0,-25.53 6.45,-44.71 19.35,-57.61 12.9,-12.91 32.88,-19.32 59.96,-19.32 21.03,0 40.62,4.14 58.77,12.42 18.16,8.28 30.18,19.8 36.08,34.63 5.89,14.77 8.84,38.16 8.84,69.97 l 0,28.23 z m 9.55,-161.54 c -26.76,-15.59 -54.23,-27.46 -82.42,-35.53 -28.19,-8.15 -55.83,-12.22 -82.9,-12.22 -43,0 -75.02,10.07 -96.03,30.36 -21.02,20.22 -31.53,50.23 -31.53,90.05 0,48.72 17.35,85.98 52.08,111.79 34.71,25.8 88.38,38.71 161.01,38.71 l 70.24,0 c -1.91,56.03 -9.96,95.08 -24.14,117.02 -14.17,22.02 -39.26,32.99 -75.25,32.99 -19.11,0 -37.43,-1.94 -54.95,-5.73 -9.23,-18.49 -14.72,-28.36 -16.47,-29.6 -1.76,-1.31 -10.91,-4.07 -27.48,-8.35 -16.56,-4.35 -28.11,-3.52 -34.63,2.35 -6.55,5.93 -13.23,16.63 -20.07,32.29 -6.86,15.59 -10.28,28.15 -10.28,37.75 0,6.34 2.63,11.24 7.89,14.76 5.25,3.52 26.67,7.8 64.26,12.9 37.58,5.11 77.56,7.66 119.92,7.66 56.38,0 98.02,-9.73 124.95,-29.12 26.91,-19.45 40.37,-55.13 40.37,-107.02 l 0,-147.18 c 0,-68.18 2.94,-109.72 8.83,-124.69 5.9,-14.97 15.69,-21.04 29.39,-18.15 3.82,-7.04 5.73,-13.87 5.73,-20.56 0,-10.83 -6.76,-19.12 -20.3,-24.84 -13.54,-5.73 -31.78,-8.63 -54.71,-8.63 -11.15,0 -19.67,1.38 -25.56,4.07 -5.9,2.69 -15.21,15.67 -27.95,38.92"
           id="path3838"
           style="fill:#ffffff;fill-opacity:1;fill-rule:nonzero;stroke:none" /><path
           d="m 5313.66,5769.88 c -20.7,0 -35.98,4.35 -45.86,12.9 -9.88,8.63 -14.82,21.05 -14.82,37.26 0.32,17.53 6.69,31.54 19.12,42.09 12.43,10.49 29.94,15.74 52.55,15.74 22.3,0 38.22,-4.56 47.78,-13.6 9.56,-9.11 14.34,-21.25 14.34,-36.57 0,-17.18 -5.89,-31.12 -17.67,-41.81 -11.8,-10.63 -30.28,-16.01 -55.44,-16.01 z m 67.85,-505.45 50.65,0 c 4.14,-8.35 6.21,-17.25 6.21,-26.77 0,-8.62 -1.76,-14.49 -5.26,-17.67 -3.5,-3.24 -10.35,-4.83 -20.54,-4.83 l -187.77,0 c -3.83,10.22 -5.74,19.81 -5.74,28.71 0,6.97 1.68,12.14 5.02,15.52 3.34,3.32 9.15,5.04 17.44,5.04 l 35.36,0 c 2.22,44.23 3.34,96.19 3.34,155.74 0,72.59 -0.56,121.1 -1.67,145.46 -1.12,24.36 -3.75,41.19 -7.89,50.44 -4.14,9.25 -9.95,14.97 -17.43,17.18 -7.49,2.21 -16.8,3.38 -27.95,3.38 -4.16,6.63 -6.22,14.49 -6.22,23.39 0,13.05 6.22,20.98 18.64,23.88 12.41,2.9 36.47,4.28 72.14,4.28 25.16,0 42.21,-1.18 51.13,-3.59 8.91,-2.35 14.01,-6.83 15.29,-13.32 1.27,-6.55 1.9,-17.8 1.9,-33.74 l 0,-217.36 c 0,-59.55 1.12,-111.51 3.35,-155.74"
           id="path3840"
           style="fill:#ffffff;fill-opacity:1;fill-rule:nonzero;stroke:none" /><path
           d="m 5567.84,5488.96 c 0,134.77 -0.63,220.47 -1.9,257.32 -1.28,36.77 -3.59,60.72 -6.93,71.9 -3.34,11.11 -8.84,18.28 -16.49,21.46 -7.64,3.17 -17.67,4.76 -30.1,4.76 -4.13,9.94 -6.2,19.6 -6.2,29.19 0,9.87 4.06,16.08 12.18,18.63 8.12,2.55 34.32,3.8 78.59,3.8 25.16,0 42.21,-1.18 51.13,-3.59 8.91,-2.35 14.01,-6.84 15.29,-13.32 1.27,-6.56 1.91,-17.81 1.91,-33.74 l 0,-399.87 c 0.32,-76.46 1.59,-136.84 3.82,-181.07 l 53.04,0 c 3.81,-8.35 5.73,-17.25 5.73,-26.77 0,-8.62 -1.75,-14.49 -5.26,-17.67 -3.5,-3.24 -10.2,-4.83 -20.06,-4.83 l -190.17,0 c -4.13,10.22 -6.2,19.81 -6.2,28.71 0,6.97 1.74,12.14 5.25,15.52 3.51,3.32 9.23,5.04 17.2,5.04 l 35.36,0 c 2.54,44.23 3.81,119.1 3.81,224.53"
           id="path3842"
           style="fill:#ffffff;fill-opacity:1;fill-rule:nonzero;stroke:none" /><path
           d="m 6307.94,5876.9 c 69.12,0 117.06,-4.07 143.82,-12.14 26.76,-8.15 40.13,-23.81 40.13,-47.06 0,-21.4 -8.6,-40.3 -25.8,-56.86 -66.89,30.57 -129,45.82 -186.34,45.82 -40.45,0 -69.04,-8.01 -85.76,-24.09 -16.72,-16.07 -25.08,-38.29 -25.08,-66.65 0,-29.6 9.95,-53.21 29.86,-70.73 19.9,-17.53 57.73,-35.05 113.47,-52.51 65.94,-19.8 115.86,-42.51 149.78,-68.11 33.93,-25.67 51.85,-67.14 53.76,-124.48 0,-64.03 -21.9,-112.4 -65.7,-145.25 -43.79,-32.78 -110.76,-49.2 -200.9,-49.2 -62.76,0 -110.37,4.48 -142.86,13.39 -32.49,8.9 -48.74,25.46 -48.74,49.68 0,21.94 9.24,41.4 27.72,58.31 63.06,-34.43 128.67,-51.62 196.84,-51.62 46.82,0 80.11,7.66 99.86,22.91 19.74,15.32 29.62,38.85 29.62,70.73 0,38.23 -14.26,66.86 -42.76,85.98 -28.51,19.11 -73.97,38.57 -136.41,58.3 -60.52,18.5 -103.6,41.68 -129.24,69.56 -25.64,27.81 -38.46,64.38 -38.46,109.64 0,56.38 20.94,101.16 62.83,134.49 41.88,33.26 102.01,49.89 180.36,49.89"
           id="path3844"
           style="fill:#ffffff;fill-opacity:1;fill-rule:nonzero;stroke:none" /><path
           d="m 6830.64,5631.32 c -41.41,0 -70.23,-14.08 -86.48,-42.23 -16.24,-28.22 -24.36,-71 -24.36,-128.34 0,-65.63 8.28,-113.86 24.84,-144.77 16.57,-30.85 42.84,-46.3 78.84,-46.3 21.02,0 40.05,3.79 57.09,11.45 17.04,7.66 28.89,19.25 35.58,34.85 6.7,15.66 10.08,42.09 10.08,79.35 l 0,211.15 c -12.15,7.04 -26.31,12.9 -42.55,17.66 -16.25,4.83 -33.92,7.18 -53.04,7.18 z m 92.21,-577.14 c 2.2,47.47 3.38,111.51 3.38,192.11 -19.46,-12.5 -41.6,-22.36 -66.44,-29.68 -24.84,-7.31 -50.81,-10.97 -77.88,-10.97 -57.34,0 -100.02,17.18 -128.05,51.61 -28.03,34.37 -42.04,89.16 -42.04,164.37 0,92.33 20.06,161.05 60.2,206.11 40.12,45.13 97.62,67.63 172.48,67.63 16.88,0 33.12,-1.11 48.74,-3.32 15.6,-2.27 32.51,-5.72 50.65,-10.56 l 16.22,38.72 c 22.28,0 37.6,-1.45 45.89,-4.28 8.27,-2.9 13.52,-7.8 15.73,-14.84 2.27,-6.97 3.38,-18.01 3.38,-32.98 l -0.97,-452.46 c 0,-60.16 1.11,-113.99 3.38,-161.46 l 41.06,0 c 4.14,-8.28 6.21,-17.18 6.21,-26.77 0,-8.56 -1.72,-14.5 -5.24,-17.67 -3.52,-3.17 -10.35,-4.76 -20.57,-4.76 l -190.15,0 c -3.82,10.22 -5.73,19.73 -5.73,28.64 0,7.04 1.67,12.21 5.01,15.52 3.35,3.38 9.16,5.04 17.45,5.04 l 47.29,0"
           id="path3846"
           style="fill:#ffffff;fill-opacity:1;fill-rule:nonzero;stroke:none" /><path
           d="m 7550.7,5407.27 c 0,-64.04 2.49,-103.37 7.59,-118 5.11,-14.7 15.32,-21.18 30.57,-19.59 3.87,-7.66 5.8,-15.18 5.8,-22.5 0,-11.8 -9.11,-20.84 -27.26,-27.19 -18.15,-6.41 -35.81,-9.59 -53.06,-9.59 -11.11,0 -19.25,2.28 -24.36,6.7 -5.1,4.48 -13.04,16.56 -23.87,36.29 -25.47,-14.63 -51.82,-26.29 -79.08,-34.85 -27.26,-8.62 -55.83,-12.9 -85.77,-12.9 -39.47,0 -70.18,10.9 -91.98,32.71 -21.81,21.8 -32.71,61.89 -32.71,120.2 0,113.72 -0.55,182.72 -1.66,207.08 -1.17,24.36 -3.79,41.19 -7.93,50.44 -4.14,9.25 -9.52,14.97 -16.22,17.18 -6.69,2.21 -14.01,3.38 -22.01,3.38 -4.14,6.63 -6.21,14.15 -6.21,22.43 0,11.18 7.87,18.77 23.46,22.91 15.6,4.14 37.26,6.21 64.93,6.21 22.02,0 37.06,-1.31 45.2,-4 8.07,-2.77 13.18,-7.18 15.25,-13.39 2.07,-6.21 3.1,-27.19 3.1,-62.86 l 0,-180.1 c 0,-65.35 7.25,-107.99 21.74,-128.07 14.49,-20.08 34.64,-30.08 60.45,-30.08 18.15,0 35.88,3.79 53.06,11.45 17.18,7.66 28.7,18.28 34.64,32.02 5.86,13.66 8.83,40.16 8.83,79.28 0,91.09 -0.41,148.43 -1.17,172.03 -0.83,23.59 -3.04,40.36 -6.69,50.37 -3.66,10.07 -8.56,16.21 -14.56,18.42 -6.08,2.21 -13.87,3.38 -23.46,3.38 -4.14,6.63 -6.21,14.15 -6.21,22.43 0,11.18 8.21,18.77 24.63,22.91 16.42,4.14 36.85,6.21 61.41,6.21 21.94,0 36.99,-1.31 45.13,-4 8.14,-2.77 13.18,-7.59 15.25,-14.63 2.14,-6.97 3.17,-28.36 3.17,-64.04 l 0,-198.24"
           id="path3848"
           style="fill:#ffffff;fill-opacity:1;fill-rule:nonzero;stroke:none" /><path
           d="m 7956.79,5414.93 c -27.4,4.76 -55.76,7.17 -85.02,7.17 -36.36,0 -61.75,-6.07 -76.25,-18.21 -14.48,-12.08 -21.73,-31.19 -21.73,-57.28 0,-25.53 6.48,-44.71 19.39,-57.61 12.83,-12.91 32.84,-19.32 59.96,-19.32 20.98,0 40.57,4.14 58.72,12.42 18.15,8.28 30.16,19.8 36.09,34.63 5.87,14.77 8.84,38.16 8.84,69.97 l 0,28.23 z m 9.59,-161.54 c -26.78,-15.59 -54.24,-27.46 -82.46,-35.53 -28.15,-8.15 -55.83,-12.22 -82.87,-12.22 -43,0 -75.01,10.07 -96.06,30.36 -21.04,20.22 -31.53,50.23 -31.53,90.05 0,48.72 17.39,85.98 52.09,111.79 34.72,25.8 88.4,38.71 160.99,38.71 l 70.25,0 c -1.94,56.03 -9.94,95.08 -24.16,117.02 -14.14,22.02 -39.26,32.99 -75.21,32.99 -19.12,0 -37.47,-1.94 -54.93,-5.73 -9.24,-18.49 -14.76,-28.36 -16.49,-29.6 -1.79,-1.31 -10.9,-4.07 -27.46,-8.35 -16.63,-4.35 -28.15,-3.52 -34.64,2.35 -6.56,5.93 -13.25,16.63 -20.08,32.29 -6.9,15.59 -10.28,28.15 -10.28,37.75 0,6.34 2.62,11.24 7.87,14.76 5.24,3.52 26.7,7.8 64.24,12.9 37.6,5.11 77.56,7.66 119.92,7.66 56.38,0 98.05,-9.73 124.97,-29.12 26.91,-19.45 40.36,-55.13 40.36,-107.02 l 0,-147.18 c 0,-68.18 2.97,-109.72 8.84,-124.69 5.93,-14.97 15.73,-21.04 29.39,-18.15 3.8,-7.04 5.73,-13.87 5.73,-20.56 0,-10.83 -6.76,-19.12 -20.29,-24.84 -13.52,-5.73 -31.81,-8.63 -54.72,-8.63 -11.17,0 -19.66,1.38 -25.53,4.07 -5.93,2.69 -15.25,15.67 -27.94,38.92"
           id="path3850"
           style="fill:#ffffff;fill-opacity:1;fill-rule:nonzero;stroke:none" /><path
           d="m 8393.98,5631.32 c -38.22,0 -65.89,-13.25 -82.94,-39.88 -17.04,-26.57 -25.52,-72.53 -25.52,-137.8 0,-57.34 8.14,-102.34 24.35,-135.04 16.22,-32.64 43.61,-48.92 82.18,-48.92 20.36,0 38.99,4.07 55.9,12.14 16.9,8.14 28.43,18.84 34.64,32.02 6.21,13.25 9.31,45.82 9.31,97.71 l 0,194.93 c -11.45,6.41 -25.39,12.14 -41.81,17.25 -16.36,5.04 -35.13,7.59 -56.11,7.59 z m 111.31,-377.93 c -28.98,-17.18 -56.03,-29.46 -81.22,-36.78 -25.18,-7.31 -51.13,-10.97 -77.9,-10.97 -54.1,0 -95.78,16.22 -124.9,48.72 -29.19,32.5 -43.75,88.87 -43.75,169.12 0,88.6 19.46,156.02 58.31,202.39 38.85,46.3 96.95,69.49 174.37,69.49 18.5,0 33.95,-0.97 46.37,-2.84 12.42,-1.93 24.15,-4.34 35.33,-7.17 0,23.53 -0.55,48.78 -1.65,75.69 -1.11,26.92 -3.39,45.96 -6.7,57.14 -3.38,11.11 -8.9,18.28 -16.69,21.46 -7.87,3.17 -17.81,4.76 -29.88,4.76 -4.14,9.94 -6.21,19.6 -6.21,29.19 0,9.87 4,16.08 11.93,18.63 7.94,2.55 34.23,3.8 78.87,3.8 25.12,0 42.16,-1.18 51.06,-3.59 8.98,-2.35 14.01,-6.84 15.32,-13.32 1.25,-6.56 1.94,-17.81 1.94,-33.74 l 0,-342.05 c 0,-121.72 2.75,-192.59 8.34,-212.67 5.59,-20.01 14.22,-28.77 26.02,-26.22 4.48,-7.38 6.69,-14.56 6.69,-21.53 0,-8.9 -10.55,-17.38 -31.74,-25.32 -21.18,-7.94 -38.5,-11.94 -51.89,-11.94 -7.93,0 -14.63,2.76 -20.01,8.35 -5.45,5.59 -12.76,18.7 -22.01,39.4"
           id="path3852"
           style="fill:#ffffff;fill-opacity:1;fill-rule:nonzero;stroke:none" /><path
           d="m 2807.59,5640.36 c 39.71,-33.81 76.71,-67.14 109.93,-98.26 49.23,-46.1 90.19,-87.29 119.61,-117.86 91.95,180.44 104.25,375.65 104.22,465.77 0,13.8 -0.29,25.12 -0.6,33.6 -46.67,-65.82 -155.21,-196.1 -333.16,-283.25"
           id="path3854"
           style="fill:#ffffff;fill-opacity:1;fill-rule:nonzero;stroke:none" /><path
           d="m 3081.09,5986.61 c -41.52,24.02 -235.44,127.11 -497.89,128.56 l -0.51,0 c -0.33,0 -0.71,0 -1.12,0 -0.42,0 -0.8,0 -1.13,0 l -0.51,0 c -262.45,-1.45 -456.38,-104.54 -497.89,-128.56 44.78,-64.72 158.87,-206.31 350.28,-297.19 44.93,-21.39 94.09,-39.95 147.66,-54.03 l 1.58,0.41 1.59,-0.41 c 53.56,14.08 102.74,32.64 147.66,54.03 191.4,90.88 305.49,232.47 350.28,297.19"
           id="path3856"
           style="fill:#ffffff;fill-opacity:1;fill-rule:nonzero;stroke:none" /><path
           d="m 2126,5424.24 c 29.41,30.57 70.38,71.76 119.61,117.86 33.22,31.12 70.22,64.45 109.93,98.26 -177.95,87.15 -286.49,217.43 -333.15,283.25 -0.32,-8.48 -0.61,-19.8 -0.61,-33.6 -0.03,-90.12 12.28,-285.4 104.22,-465.77"
           id="path3858"
           style="fill:#ffffff;fill-opacity:1;fill-rule:nonzero;stroke:none" /><path
           d="m 2988.86,5362.07 c -1.49,1.73 -16.72,18.91 -20.44,22.7 -1.94,2 -4.3,4.35 -6.97,7.11 -25.49,25.87 -81.59,82.46 -112.11,111.09 -35.18,32.92 -74.52,68.32 -116.78,104.13 -44.44,-20.84 -92.88,-38.99 -145.58,-52.92 l -3.44,-1.04 c -1.2,-0.35 -2.51,-0.35 -3.7,-0.07 l -4.25,1.24 c -0.02,0 -0.04,0.07 -0.06,0.07 -52.44,13.87 -100.71,32.02 -144.97,52.72 -42.25,-35.81 -81.59,-71.21 -116.77,-104.13 -30.94,-28.98 -58.7,-56.09 -82.47,-79.9 -11.82,-11.87 -28.43,-29.33 -37.98,-39.54 -3.17,-3.45 -5.59,-6.07 -6.68,-7.32 -0.29,-0.27 -0.5,-0.55 -0.5,-0.55 l -0.02,0 c -0.12,-0.13 -0.23,-0.34 -0.37,-0.48 -7.83,-8.69 -15.28,-17.25 -22.1,-25.53 26.9,-43.61 64.7,-94.47 116.13,-142.84 52.98,-49.82 120.36,-96.94 205.16,-130.83 0.53,-0.2 5.99,-2.55 8.97,-3.65 5.95,-2.28 14.34,-5.31 24.03,-8.76 17.77,-6.28 39.95,-13.67 59.68,-19.26 1.23,-0.34 2.47,-0.69 3.69,-1.03 0,0 0.01,0 0.02,0 l 0.01,0 0,0 c 1.21,0.34 2.44,0.69 3.66,1.03 20.13,5.66 42.82,13.32 60.78,19.67 l 0.06,0 c 8.99,3.1 17.79,6.28 26.42,9.66 l 0.08,0 c 1.86,0.69 3.32,1.24 4.31,1.65 0.27,0.07 0.49,0.21 0.69,0.28 0.21,0.07 0.37,0.21 0.59,0.28 84.87,33.88 152.3,81.08 205.31,130.9 51.46,48.37 89.29,99.29 116.2,142.9 -2.55,3.1 -6.55,7.8 -10.6,12.42"
           id="path3860"
           style="fill:#ffffff;fill-opacity:1;fill-rule:nonzero;stroke:none" /></g></g></g></svg>