<?xml version="1.0" encoding="utf-8"?>
<!-- Generator: Adobe Illustrator 18.0.0, SVG Export Plug-In . SVG Version: 6.00 Build 0)  -->
<!DOCTYPE svg PUBLIC "-//W3C//DTD SVG 1.1//EN" "http://www.w3.org/Graphics/SVG/1.1/DTD/svg11.dtd">
<svg version="1.1" id="Layer_1" xmlns="http://www.w3.org/2000/svg" xmlns:xlink="http://www.w3.org/1999/xlink" x="0px" y="0px"
	 viewBox="0 0 960 560" enable-background="new 0 0 960 560" xml:space="preserve">
<g>
	<path fill="#1EBAED" d="M74.3,210.4c17.8-4.4,34.9-6.1,50.8-6.1c0.4,0,0.8,0,1.2,0h0.1c14.4,0.1,27.9,1.6,40.1,3.9
		c16.1,3,30,7.4,40.9,11.6c11.3,4.2,31.7,12.8,45.1,25.7c0.2-4.4,0.3-8.4,0.3-11.8c0-5.8-0.2-9.8-0.3-11.6l0,0
		c-0.1-0.9-0.2-1.7-0.4-2.4c-0.2-0.7-0.4-1.2-0.6-1.6c-0.4-0.9-0.8-1.5-1.1-1.9c-0.3-0.4-0.6-0.8-0.8-1c-0.4-0.5-0.7-0.8-1-1
		c-0.2-0.2-0.4-0.4-0.6-0.5c-0.3-0.2-0.5-0.4-0.7-0.5c-0.3-0.2-0.6-0.4-0.8-0.5c-0.3-0.2-0.6-0.4-0.8-0.5c-0.2-0.1-0.3-0.2-0.4-0.2
		l0.1,0c-4.4-2.6-18.2-10.2-38.8-17.3c-10.3-3.5-22.4-6.9-35.8-9.5c-13.5-2.5-28.4-4.2-44.4-4.3l-0.1,0h0l0.1,0c-0.4,0-0.9,0-1.3,0
		c-17.6,0-36.6,1.9-56.4,6.8c-8,2-16.2,4.4-24.4,7.4c-2.3,8.1-4.3,17.5-5,27.2C51.2,217.1,62.9,213.2,74.3,210.4z M229,223.6
		L229,223.6L229,223.6z"/>
	<path fill="none" d="M116.9,429.3c0.5,0.2,0.9,0.3,1.3,0.5C117.8,429.6,117.4,429.4,116.9,429.3z"/>
	<path fill="#1A4276" d="M228.9,247c-0.5,8.9-1.5,19.7-3.7,31.6c-1.7,9.3-4,19.2-7.2,29.2c-3.2,10-7.3,20.2-12.5,30.1
		c-3.9,7.4-8.4,14.7-13.6,21.6c-7.8,10.4-17.2,20-28.6,28.4c-9.3,6.9-20,12.9-32.2,17.9c-1.5,0.6-3.1,1.2-4.7,1.8
		c0,0-3.5,1.3-5.3,1.9c-10.5,3.7-22.2,6.4-32.9,5.9c8.6,5.2,18,9.8,28.2,13.6c0,0,0,0,0,0c0.2,0.1,0.4,0.1,0.5,0.2
		c0.4,0.2,0.9,0.3,1.3,0.5c5.1,1.8,8.1,1.8,8.1,1.8c2.2,0,4.7-0.6,6.2-1.1c11.1-3.9,21.3-8.7,30.6-14.1
		c14.9-8.8,27.4-19.3,37.8-30.8c10.4-11.5,18.7-23.9,25.4-36.6c5.9-11.3,10.5-22.7,14.1-33.9c5.4-16.8,8.4-32.9,10.2-46.9
		c0.2-1.5,0.4-2.9,0.5-4.4C245.7,258.9,238,252.7,228.9,247z"/>
	<path fill="#191F4B" d="M116.4,429.1C116.4,429.1,116.4,429.1,116.4,429.1c0.2,0.1,0.4,0.1,0.5,0.2
		C116.8,429.2,116.6,429.1,116.4,429.1z"/>
	<path fill="#191F4B" d="M105.3,398.2c-1.3-0.7-2.7-1.5-4-2.2c-12.7-7.5-23.4-16.5-32.3-26.3c-8.9-9.9-16.1-20.6-21.9-31.8
		c-5.2-9.9-9.2-20.1-12.4-30.1c-4.8-15-7.6-29.8-9.2-42.6c-0.2-2-0.5-3.9-0.7-5.8c-0.2-1.6-0.3-3.1-0.4-4.6
		c-0.3-3.6-0.9-11.7-1-14.1c0-1.3-0.1-2.9,0-4.8c0-8.2,0.5-21,3.2-33.7c-6.3,2.9-12.7,6-19.1,9.6l0,0l-1,0.6
		c-3.5,1.9-5.8,5.5-6.1,9.5l0,0.2l0,0c-0.1,1.8-0.3,5.9-0.3,11.8c0,11.1,0.7,28.6,4.4,48.9c1.8,10.2,4.4,21,7.9,32.2
		c3.6,11.2,8.1,22.6,14,33.8c4.4,8.5,9.6,16.8,15.6,24.9c5.9,7.9,12.6,15.4,20.3,22.5c3,2.9,8.6,7.4,8.6,7.4
		C89.6,402.9,105.3,398.2,105.3,398.2z"/>
	<path fill="#191F4B" d="M320.9,260.5h28.2c2.2,8,5.3,18.1,9.2,30.4c3.9,12.3,7,22.3,9.2,30c2.2,7.8,3.5,11.6,3.8,11.6
		c0.3,0,3.4-9.9,9.2-29.6c5.8-19.7,9.7-33.9,11.7-42.4H420c0.5,1.4,0.8,2.7,0.8,4c0,1.1-0.2,1.9-0.7,2.4c-0.5,0.5-1.3,0.7-2.4,0.7
		h-4.5c-0.2,8.4,0,22.2,0.4,41.3c0.5,19.1,0.9,31.9,1.4,38.3h6.7c0.6,1.4,0.9,2.7,0.9,4c0,1.1-0.2,1.9-0.7,2.4
		c-0.5,0.5-1.3,0.7-2.5,0.7h-26.9c-0.6-1.6-0.9-3-0.9-4.3c0-1,0.2-1.7,0.7-2.1c0.5-0.4,1.3-0.7,2.4-0.7h4.1c0.4-8,0.2-32.2-0.5-72.7
		c-3.6,13.7-7.7,27.7-12.4,42c-4.7,14.2-7.8,22.7-9.3,25.3c-1.5,2.6-4,3.9-7.3,3.9c-4.9,0-7.6-0.2-8.1-0.5c-0.6-0.4-3.6-8.4-9.2-24
		c-5.6-15.6-10.5-31.3-14.7-46.9c-0.1,40.7,0,65,0.3,73h6.4c0.5,1.4,0.8,2.7,0.8,4c0,1.1-0.2,1.9-0.7,2.4c-0.5,0.5-1.3,0.7-2.4,0.7
		h-25.3c-0.5-1.6-0.8-3-0.8-4.3c0-1,0.2-1.7,0.7-2.1c0.5-0.4,1.3-0.7,2.4-0.7h5c0.5-6.4,1-19.1,1.4-38.3c0.4-19.1,0.6-32.9,0.5-41.3
		h-6.9c-0.5-1.6-0.8-3-0.8-4.3c0-1,0.2-1.7,0.7-2.1C319,260.7,319.8,260.5,320.9,260.5z"/>
	<path fill="#191F4B" d="M475.9,348.7c-3.8,2.2-7.8,3.9-11.8,5.1c-4.1,1.2-8,1.8-11.9,1.8c-6.2,0-10.8-1.5-13.8-4.4
		c-3-2.9-4.5-7.2-4.5-12.9c0-7,2.5-12.4,7.5-16.1c5-3.7,12.7-5.6,23.1-5.6h10.1c-0.3-8.1-1.4-13.7-3.5-16.8c-2-3.2-5.6-4.7-10.8-4.7
		c-2.7,0-5.4,0.3-7.9,0.8c-1.3,2.7-2.1,4.1-2.4,4.3c-0.3,0.2-1.6,0.6-3.9,1.2c-2.4,0.6-4,0.5-5-0.3c-0.9-0.8-1.9-2.4-2.9-4.6
		c-1-2.2-1.5-4.1-1.5-5.4c0-0.9,0.4-1.6,1.1-2.1c0.8-0.5,3.8-1.1,9.2-1.9c5.4-0.7,11.1-1.1,17.2-1.1c8.1,0,14.1,1.4,18,4.2
		c3.9,2.8,5.8,7.9,5.8,15.4v21.2c0,9.8,0.4,15.8,1.3,17.9c0.8,2.2,2.3,3,4.2,2.6c0.5,1,0.8,2,0.8,3c0,1.6-1,2.7-2.9,3.6
		c-1.9,0.8-4.6,1.2-7.9,1.2c-1.6,0-2.8-0.2-3.7-0.6C479.1,353.9,477.7,352.1,475.9,348.7z M474.5,325.5c-3.9-0.7-8-1-12.2-1
		c-5.2,0-8.9,0.9-11,2.6c-2.1,1.7-3.1,4.5-3.1,8.2c0,3.7,0.9,6.4,2.8,8.3c1.9,1.9,4.7,2.8,8.6,2.8c3,0,5.8-0.6,8.4-1.8
		c2.6-1.2,4.3-2.9,5.2-5c0.8-2.1,1.3-5.5,1.3-10.1V325.5z"/>
	<path fill="#191F4B" d="M528.9,347.1h7.3c0.6,1.2,0.9,2.5,0.9,3.8c0,1.2-0.3,2.1-0.8,2.5c-0.5,0.5-1.5,0.7-3,0.7h-27
		c-0.5-1.5-0.8-2.8-0.8-4.1c0-1,0.2-1.8,0.7-2.2c0.5-0.5,1.3-0.7,2.5-0.7h5.1c0.3-6.4,0.5-13.8,0.5-22.4c0-10.4-0.1-17.4-0.2-20.9
		c-0.2-3.5-0.5-5.9-1.1-7.2c-0.6-1.3-1.4-2.2-2.5-2.5c-1.1-0.3-2.4-0.5-4-0.5c-0.6-1-0.9-2.1-0.9-3.4c0-1.9,0.9-3,2.7-3.4
		c1.8-0.4,5.2-0.6,10.4-0.6c3.6,0,6.1,0.2,7.3,0.5c1.3,0.3,2,1,2.2,1.9c0.2,0.9,0.3,2.6,0.3,4.8v31.2
		C528.4,333.3,528.6,340.8,528.9,347.1z M519.2,274.5c-3,0-5.2-0.6-6.6-1.9c-1.4-1.2-2.1-3-2.1-5.4c0-2.5,1-4.5,2.7-6
		c1.8-1.5,4.3-2.3,7.6-2.3c3.2,0,5.5,0.7,6.9,2c1.4,1.3,2.1,3.1,2.1,5.3c0,2.5-0.8,4.5-2.5,6C525.4,273.7,522.8,274.5,519.2,274.5z"
		/>
	<path fill="#191F4B" d="M555.7,314.9c0-19.4-0.1-31.7-0.3-37c-0.2-5.3-0.5-8.7-1-10.3c-0.5-1.6-1.3-2.6-2.4-3.1
		c-1.1-0.5-2.5-0.7-4.3-0.7c-0.6-1.4-0.9-2.8-0.9-4.2c0-1.4,0.6-2.3,1.8-2.7c1.2-0.4,4.9-0.6,11.3-0.6c3.6,0,6.1,0.2,7.3,0.5
		c1.3,0.3,2,1,2.2,1.9c0.2,0.9,0.3,2.6,0.3,4.8v57.5c0,11,0.2,19.7,0.6,26h7.6c0.5,1.2,0.8,2.5,0.8,3.8c0,1.2-0.3,2.1-0.8,2.5
		c-0.5,0.5-1.5,0.7-2.9,0.7h-27.3c-0.6-1.5-0.9-2.8-0.9-4.1c0-1,0.3-1.8,0.8-2.2c0.5-0.5,1.3-0.7,2.5-0.7h5.1
		C555.5,340.8,555.7,330,555.7,314.9z"/>
	<path fill="#191F4B" d="M624.6,259.1c9.9,0,16.8,0.6,20.7,1.8c3.8,1.2,5.8,3.4,5.8,6.8c0,3.1-1.2,5.8-3.7,8.2
		c-9.6-4.4-18.5-6.6-26.8-6.6c-5.8,0-9.9,1.2-12.3,3.5c-2.4,2.3-3.6,5.5-3.6,9.6c0,4.3,1.4,7.6,4.3,10.2c2.9,2.5,8.3,5,16.3,7.6
		c9.5,2.8,16.7,6.1,21.5,9.8c4.9,3.7,7.5,9.6,7.7,17.9c0,9.2-3.1,16.2-9.4,20.9c-6.3,4.7-15.9,7.1-28.9,7.1c-9,0-15.9-0.6-20.5-1.9
		c-4.7-1.3-7-3.7-7-7.1c0-3.2,1.3-6,4-8.4c9.1,4.9,18.5,7.4,28.3,7.4c6.7,0,11.5-1.1,14.4-3.3c2.8-2.2,4.3-5.6,4.3-10.2
		c0-5.5-2-9.6-6.1-12.4c-4.1-2.7-10.6-5.5-19.6-8.4c-8.7-2.7-14.9-6-18.6-10c-3.7-4-5.5-9.3-5.5-15.8c0-8.1,3-14.5,9-19.3
		C604.7,261.5,613.4,259.1,624.6,259.1z"/>
	<path fill="#191F4B" d="M713,377.4c0.3-6.8,0.5-16,0.5-27.6c-2.8,1.8-6,3.2-9.5,4.3s-7.3,1.6-11.2,1.6c-8.2,0-14.4-2.5-18.4-7.4
		c-4-4.9-6-12.8-6-23.6c0-13.3,2.9-23.2,8.7-29.6c5.8-6.5,14-9.7,24.8-9.7c2.4,0,4.8,0.2,7,0.5c2.2,0.3,4.7,0.8,7.3,1.5l2.3-5.6
		c3.2,0,5.4,0.2,6.6,0.6c1.2,0.4,1.9,1.1,2.3,2.1c0.3,1,0.5,2.6,0.5,4.7l-0.1,65c0,8.7,0.2,16.4,0.5,23.2h5.9
		c0.6,1.2,0.9,2.5,0.9,3.8c0,1.2-0.3,2.1-0.8,2.5c-0.5,0.5-1.5,0.7-3,0.7h-27.3c-0.5-1.5-0.8-2.8-0.8-4.1c0-1,0.2-1.8,0.7-2.2
		c0.5-0.5,1.3-0.7,2.5-0.7H713z M699.8,294.4c-6,0-10.1,2-12.4,6.1c-2.3,4.1-3.5,10.2-3.5,18.4c0,9.4,1.2,16.4,3.6,20.8
		c2.4,4.4,6.2,6.7,11.3,6.7c3,0,5.8-0.5,8.2-1.6c2.4-1.1,4.2-2.8,5.1-5c1-2.2,1.4-6,1.4-11.4V298c-1.7-1-3.8-1.9-6.1-2.5
		C705.1,294.8,702.5,294.4,699.8,294.4z"/>
	<path fill="#191F4B" d="M803.3,326.6c0,9.2,0.4,14.9,1.1,17c0.7,2.1,2.2,3,4.4,2.8c0.5,1.1,0.8,2.2,0.8,3.2c0,1.7-1.3,3-3.9,3.9
		c-2.6,0.9-5.2,1.4-7.6,1.4c-1.6,0-2.8-0.3-3.5-1c-0.7-0.6-1.9-2.4-3.4-5.2c-3.7,2.1-7.5,3.8-11.4,5c-3.9,1.2-8,1.9-12.3,1.9
		c-5.7,0-10.1-1.6-13.2-4.7c-3.1-3.1-4.7-8.9-4.7-17.3c0-16.3-0.1-26.3-0.2-29.8c-0.2-3.5-0.5-5.9-1.1-7.2c-0.6-1.3-1.4-2.2-2.3-2.5
		c-1-0.3-2-0.5-3.2-0.5c-0.6-1-0.9-2-0.9-3.2c0-1.6,1.1-2.7,3.4-3.3c2.2-0.6,5.4-0.9,9.3-0.9c3.2,0,5.3,0.2,6.5,0.6
		c1.2,0.4,1.9,1,2.2,1.9c0.3,0.9,0.4,3.9,0.4,9v25.9c0,9.4,1,15.5,3.1,18.4c2.1,2.9,5,4.3,8.7,4.3c2.6,0,5.2-0.5,7.6-1.6
		c2.5-1.1,4.1-2.6,5-4.6c0.8-2,1.3-5.8,1.3-11.4c0-13.1-0.1-21.3-0.2-24.7c-0.1-3.4-0.4-5.8-1-7.2c-0.5-1.4-1.2-2.3-2.1-2.6
		c-0.9-0.3-2-0.5-3.4-0.5c-0.6-1-0.9-2-0.9-3.2c0-1.6,1.2-2.7,3.5-3.3c2.4-0.6,5.3-0.9,8.8-0.9c3.2,0,5.3,0.2,6.5,0.6
		c1.2,0.4,1.9,1.1,2.2,2.1c0.3,1,0.4,4.1,0.4,9.2V326.6z"/>
	<path fill="#191F4B" d="M863,348.7c-3.8,2.2-7.8,3.9-11.8,5.1c-4.1,1.2-8,1.8-11.9,1.8c-6.2,0-10.8-1.5-13.8-4.4
		c-3-2.9-4.5-7.2-4.5-12.9c0-7,2.5-12.4,7.5-16.1c5-3.7,12.7-5.6,23.1-5.6h10.1c-0.3-8.1-1.4-13.7-3.5-16.8c-2-3.2-5.6-4.7-10.8-4.7
		c-2.7,0-5.4,0.3-7.9,0.8c-1.3,2.7-2.1,4.1-2.4,4.3c-0.3,0.2-1.6,0.6-3.9,1.2c-2.4,0.6-4,0.5-5-0.3c-0.9-0.8-1.9-2.4-2.9-4.6
		c-1-2.2-1.5-4.1-1.5-5.4c0-0.9,0.4-1.6,1.1-2.1c0.8-0.5,3.8-1.1,9.2-1.9c5.4-0.7,11.1-1.1,17.2-1.1c8.1,0,14.1,1.4,18,4.2
		c3.9,2.8,5.8,7.9,5.8,15.4v21.2c0,9.8,0.4,15.8,1.3,17.9c0.8,2.2,2.3,3,4.2,2.6c0.5,1,0.8,2,0.8,3c0,1.6-1,2.7-2.9,3.6
		c-1.9,0.8-4.6,1.2-7.9,1.2c-1.6,0-2.8-0.2-3.7-0.6C866.2,353.9,864.8,352.1,863,348.7z M861.6,325.5c-3.9-0.7-8-1-12.2-1
		c-5.2,0-8.9,0.9-11,2.6c-2.1,1.7-3.1,4.5-3.1,8.2c0,3.7,0.9,6.4,2.8,8.3c1.9,1.9,4.7,2.8,8.6,2.8c3,0,5.8-0.6,8.4-1.8
		c2.6-1.2,4.3-2.9,5.2-5c0.8-2.1,1.3-5.5,1.3-10.1V325.5z"/>
	<path fill="#191F4B" d="M940.5,348.7c-4.2,2.5-8.1,4.2-11.7,5.3c-3.6,1.1-7.3,1.6-11.2,1.6c-7.8,0-13.8-2.3-18-7
		c-4.2-4.7-6.3-12.8-6.3-24.3c0-12.7,2.8-22.4,8.4-29.1c5.6-6.7,13.9-10,25.1-10c2.7,0,4.9,0.1,6.7,0.4c1.8,0.3,3.5,0.6,5.1,1
		c0-3.4-0.1-7-0.2-10.9c-0.2-3.9-0.5-6.6-1-8.2c-0.5-1.6-1.3-2.6-2.4-3.1c-1.1-0.5-2.6-0.7-4.3-0.7c-0.6-1.4-0.9-2.8-0.9-4.2
		c0-1.4,0.6-2.3,1.7-2.7c1.1-0.4,4.9-0.6,11.3-0.6c3.6,0,6.1,0.2,7.3,0.5c1.3,0.3,2,1,2.2,1.9c0.2,0.9,0.3,2.6,0.3,4.8v49.2
		c0,17.5,0.4,27.7,1.2,30.6c0.8,2.9,2,4.1,3.7,3.8c0.6,1.1,1,2.1,1,3.1c0,1.3-1.5,2.5-4.6,3.6c-3,1.1-5.5,1.7-7.5,1.7
		c-1.1,0-2.1-0.4-2.9-1.2C942.8,353.6,941.8,351.7,940.5,348.7z M924.5,294.4c-5.5,0-9.5,1.9-11.9,5.7c-2.4,3.8-3.7,10.4-3.7,19.8
		c0,8.2,1.2,14.7,3.5,19.4c2.3,4.7,6.3,7,11.8,7c2.9,0,5.6-0.6,8-1.8c2.4-1.2,4.1-2.7,5-4.6c0.9-1.9,1.3-6.6,1.3-14v-28
		c-1.6-0.9-3.7-1.7-6-2.5C930.2,294.8,927.5,294.4,924.5,294.4z"/>
	<path fill="#1A4276" d="M159,293.1c5.7,4.9,11,9.6,15.8,14.1c7.1,6.6,13,12.6,17.2,16.9c13.2-25.9,15-54,15-66.9c0-2,0-3.6-0.1-4.8
		C200.2,261.9,184.6,280.6,159,293.1z"/>
	<path fill="#1EBAED" d="M198.3,243.3c-6-3.4-33.8-18.3-71.6-18.5h0h0c0,0-0.1,0-0.2,0s-0.1,0-0.2,0h0h0h0h0
		c-37.7,0.2-65.6,15-71.6,18.5c6.4,9.3,22.8,29.7,50.3,42.7c6.5,3.1,13.5,5.7,21.2,7.8l0.2-0.1l0.2,0.1c7.7-2,14.8-4.7,21.2-7.8
		C175.5,273,191.9,252.6,198.3,243.3z"/>
	<path fill="#1A4276" d="M61,324.2c4.2-4.4,10.1-10.3,17.2-16.9c4.8-4.5,10.1-9.3,15.8-14.1c-25.6-12.5-41.2-31.3-47.9-40.7
		c0,1.2-0.1,2.8-0.1,4.8C46,270.2,47.8,298.2,61,324.2z"/>
	<path fill="#191F4B" d="M185,333.1c-0.2-0.2-2.4-2.7-2.9-3.3c-0.3-0.3-0.6-0.6-1-1c-3.7-3.7-11.7-11.9-16.1-16
		c-5.1-4.7-10.7-9.8-16.8-15c-6.4,3-13.4,5.6-20.9,7.6l-0.5,0.1c-0.2,0.1-0.4,0.1-0.5,0l-0.6-0.2c0,0,0,0,0,0
		c-7.5-2-14.5-4.6-20.8-7.6c-6.1,5.1-11.7,10.2-16.8,15c-4.4,4.2-8.4,8.1-11.9,11.5c-1.7,1.7-4.1,4.2-5.5,5.7c-0.5,0.5-0.8,0.9-1,1
		c0,0-0.1,0.1-0.1,0.1l0,0c0,0,0,0-0.1,0.1c-1.1,1.2-2.2,2.5-3.2,3.7c3.9,6.3,9.3,13.6,16.7,20.5c7.6,7.2,17.3,13.9,29.5,18.8
		c0.1,0,0.9,0.4,1.3,0.5c0.9,0.3,2.1,0.8,3.5,1.3c2.6,0.9,5.7,2,8.6,2.8c0.2,0.1,0.4,0.1,0.5,0.1c0,0,0,0,0,0l0,0v0
		c0.2,0,0.3-0.1,0.5-0.1c2.9-0.8,6.2-1.9,8.7-2.8l0,0c1.3-0.4,2.6-0.9,3.8-1.4l0,0c0.3-0.1,0.5-0.2,0.6-0.2c0,0,0.1,0,0.1,0
		c0,0,0.1,0,0.1,0c12.2-4.9,21.9-11.6,29.5-18.8c7.4-7,12.8-14.3,16.7-20.5C186.2,334.4,185.6,333.8,185,333.1z"/>
</g>
</svg>
